<?xml version="1.0" encoding="UTF-8"?>
<svg id="Laag_1" data-name="Laag 1" xmlns="http://www.w3.org/2000/svg" viewBox="0 0 326.15 208.36">
  <defs>
    <style>
      .cls-1 {
        fill: oklch(0.7 0.15 230);
      }

      .cls-2 {
        fill: oklch(0.3 0.15 230);
      }

      .cls-3 {
        fill: oklch(0.5 0.15 230);
      }
    </style>
  </defs>
  <polygon class="cls-3" points="197.89 178.35 196.09 178.65 194.24 178.83 192.39 178.91 191.46 178.93 190.54 178.91 186.96 178.7 183.64 178.35 181.97 178.11 180.4 177.77 178.88 177.38 177.47 176.9 176.1 176.36 174.8 175.75 173.54 175.07 172.3 174.36 167.5 171.3 165.11 169.91 163.87 169.27 162.63 168.68 161.25 168.12 159.83 167.61 158.38 167.16 156.85 166.79 155.3 166.47 153.65 166.22 151.95 166.03 150.18 165.92 147.97 165.86 145.86 165.91 143.84 166.07 141.89 166.32 140.03 166.66 138.22 167.05 136.49 167.55 134.83 168.1 133.19 168.71 131.62 169.36 128.57 170.8 122.78 173.93 124.73 176.23 126.79 178.48 130.81 182.64 136.49 181.3 139.34 180.77 142.22 180.37 145.13 180.11 148.11 179.98 151.17 179.98 154.32 180.16 155.54 180.29 156.73 180.46 157.91 180.69 159.02 180.96 160.12 181.28 161.2 181.61 163.29 182.39 171.46 185.97 175.49 187.51 179.82 188.93 182.1 189.53 184.43 190.04 186.79 190.42 189.18 190.66 190.39 190.73 191.59 190.74 194.01 190.66 195.01 190.6 196.09 190.44 197.19 190.27 198.28 190.05 199.35 189.79 199.84 189.65 200.32 189.5 200.78 189.31 201.18 189.13 201.38 189.03 201.56 188.94 201.73 188.84 201.9 188.73 202.17 188.53 202.44 188.31 202.7 188.08 202.96 187.81 203.19 187.55 203.4 187.25 203.61 186.94 203.83 186.63 203.99 186.29 204.17 185.95 204.36 185.58 204.51 185.22 204.64 184.84 204.76 184.44 204.99 183.65 205.07 183.23 205.14 182.82 205.23 181.98 205.27 181.55 205.28 181.11 205.27 180.25 205.22 179.8 205.17 179.38 205.09 178.94 205.03 178.51 204.92 178.09 204.81 177.67 204.68 177.25 204.54 176.83 204.25 176.81 203.96 176.8 203.7 176.8 203.43 176.81 203.19 176.81 202.94 176.83 202.46 176.9 202 176.99 201.58 177.09 201.15 177.22 200.76 177.36 199.28 177.94 198.58 178.17 198.23 178.28 197.89 178.35"/>
  <polygon class="cls-1" points="61.25 161.22 61.16 161.41 61.12 161.62 57.08 163.53 53.1 165.5 45.5 168.27 37.76 170.89 35.02 171.57 34.37 171.78 34.03 171.89 33.71 172.01 33.39 172.16 33.08 172.31 32.78 172.49 32.49 172.68 33.01 173.06 33.52 173.44 34 173.82 34.46 174.25 35.36 175.09 36.23 175.99 39.54 179.73 41.72 178.96 44.06 178.25 46.53 177.61 49.13 177.04 54.63 176.17 60.42 175.59 62.34 175.5 64.15 175.5 65.91 175.57 67.59 175.73 69.21 175.94 70.77 176.22 72.27 176.57 73.72 176.94 76.52 177.8 79.19 178.77 84.36 180.71 84.39 180.06 84.44 179.44 84.52 178.85 84.64 178.29 84.8 177.77 84.96 177.28 85.15 176.78 85.35 176.31 85.59 175.88 85.83 175.45 86.36 174.6 87.41 172.97 85.4 172.57 83.46 172.1 81.6 171.57 79.8 170.99 76.39 169.67 73.14 168.17 70.04 166.55 67.07 164.83 61.25 161.22"/>
  <polygon class="cls-2" points="291.67 161.19 289.59 161.5 287.49 161.68 285.42 161.78 284.92 161.78 284.65 161.78 284.39 161.78 283.39 161.76 281.38 161.66 279.48 161.46 277.63 161.21 275.89 160.9 275.03 160.73 274.19 160.52 273.35 160.27 272.56 160 271.02 159.42 269.55 158.74 268.14 158.03 266.77 157.26 264.13 155.64 258.89 152.41 257.52 151.7 256.11 151.04 254.62 150.45 253.86 150.21 253.08 149.99 251.41 149.57 249.64 149.22 247.8 148.94 245.87 148.72 243.87 148.6 241.83 148.56 239.73 148.6 237.58 148.73 236.03 148.93 234.54 149.17 233.07 149.49 231.65 149.85 230.29 150.28 228.94 150.75 226.35 151.82 216.7 156.77 217.1 157.31 217.51 157.86 218.46 158.96 220.72 161.33 222.76 163.79 223.38 164.45 223.69 164.75 223.98 165.01 224.11 165.11 224.29 165.23 224.57 165.4 224.87 165.55 225.14 165.61 225.46 165.61 225.64 165.6 225.85 165.56 226.31 165.45 226.8 165.33 228.73 164.79 232.03 164.07 235.47 163.54 239.04 163.18 242.66 162.98 244.47 162.98 246.26 163.06 248.05 163.19 249.8 163.38 251.52 163.65 253.21 163.99 254.83 164.42 256.39 164.92 259.79 166.23 262.95 167.63 265.97 168.98 268.98 170.16 273.33 171.66 275.59 172.32 277.98 172.91 280.45 173.36 283.05 173.65 284.39 173.73 285.78 173.76 287.17 173.73 288.62 173.64 290.5 173.41 291.55 173.23 292.58 173 293.6 172.74 294.09 172.59 294.53 172.44 294.98 172.27 295.39 172.08 295.59 171.99 295.76 171.89 295.92 171.8 296.1 171.68 296.38 171.48 296.66 171.25 296.93 170.99 297.18 170.73 297.43 170.43 297.53 170.29 297.66 170.13 297.87 169.81 298.06 169.47 298.26 169.13 298.43 168.74 298.59 168.37 298.74 167.98 298.88 167.58 299 167.17 299.11 166.77 299.19 166.34 299.34 165.49 299.39 165.07 299.43 164.63 299.46 164.19 299.46 163.76 299.43 162.89 299.34 162.05 299.29 161.64 299.19 161.22 299.11 160.82 298.98 160.43 298.86 160.03 298.72 159.66 298.13 159.61 297.87 159.6 297.61 159.6 297.34 159.6 297.09 159.61 296.62 159.66 296.37 159.71 296.15 159.75 295.71 159.84 295.29 159.96 294.88 160.12 293.3 160.71 292.51 160.97 292.1 161.09 291.89 161.14 291.67 161.19"/>
  <polygon class="cls-3" points="176.58 155.4 174.58 158.84 174.37 159.3 174.18 159.78 174.08 160.02 174 160.27 173.94 160.52 173.88 160.79 173.82 161.05 173.78 161.34 173.75 161.63 173.73 161.9 173.73 162.2 173.75 162.51 173.77 162.82 173.82 163.14 171.94 162.56 170.01 161.87 165.96 160.29 163.8 159.55 161.55 158.9 160.38 158.61 159.17 158.37 157.93 158.16 156.68 158.03 154.94 157.94 153.19 157.92 149.75 158.03 146.89 158.22 144.04 158.53 141.23 158.93 138.5 159.43 135.9 160.02 133.4 160.72 131.04 161.48 128.87 162.33 128.61 162.14 128.39 161.95 128.23 161.71 128.09 161.48 127.83 161.02 127.67 160.83 127.49 160.66 127.14 160.72 126.88 160.84 126.7 161 126.57 161.19 131.23 149.81 130.66 151.81 131.03 151.81 131.38 151.79 131.75 151.74 132.09 151.69 132.43 151.61 132.78 151.52 133.46 151.32 136.07 150.29 142.37 147.81 145.47 146.42 148.51 144.91 149.83 144.2 150.16 144.04 150.44 143.9 150.88 143.8 151.09 143.85 151.4 144 151.78 144.23 152.18 144.5 153.77 145.6 158.85 148.77 161.5 150.22 164.21 151.55 167.05 152.73 170.03 153.8 173.2 154.68 176.58 155.4"/>
  <polygon class="cls-1" points="138.14 134.75 138.12 135.38 138.08 136.03 138.01 136.72 137.9 137.42 137.65 138.79 136.37 143.65 134.91 148.15 134.2 150.32 134.15 150.5 129.49 161.88 129.37 162.08 129.21 162.26 129.03 162.38 128.75 162.45 128.45 162.45 128.13 162.35 127.97 162.27 127.79 162.17 127.62 162.06 127.43 161.94 127.06 161.66 126.7 161.32 125.93 160.54 123.36 157.48 119.65 153.41 115.76 149.54 113.72 147.74 111.62 146 109.44 144.36 107.17 142.82 104 140.92 100.61 139.17 97.01 137.56 93.21 136.12 89.23 134.9 85.11 133.88 80.84 133.11 76.46 132.61 71.82 132.31 67.37 132.26 63.07 132.44 58.96 132.83 55.02 133.42 51.23 134.18 47.58 135.1 44.06 136.17 40.66 137.4 37.35 138.73 34.19 140.18 31.09 141.74 25.16 145.07 19.49 148.63 16.69 150.6 13.98 152.66 11.26 154.72 8.42 156.64 8.21 156.35 8.01 156.01 7.62 155.33 7.28 154.6 6.99 153.87 6.44 152.3 5.94 150.71 3.16 140.69 1.99 135.32 1.55 132.67 1.23 130.1 1.12 129.03 1.09 128.45 1.06 127.91 1.09 127.34 1.11 127.08 1.14 126.81 1.17 126.54 1.23 126.3 1.29 126.05 1.37 125.82 1.49 125.54 1.68 125.23 1.81 125.07 1.94 124.91 2.24 124.56 2.56 124.22 2.94 123.85 3.73 123.14 5.46 121.73 7.04 120.55 11.89 117.23 16.92 114.1 27.23 108.4 34.59 104.82 38.29 103.19 42.06 101.69 45.93 100.32 49.95 99.12 54.16 98.08 58.63 97.19 61.94 96.69 65.71 96.29 69.8 96.09 70.87 96.09 71.94 96.1 74.13 96.24 78.54 96.65 82.78 97.25 86.88 98.02 90.83 98.96 94.62 100.04 98.28 101.28 101.79 102.66 105.19 104.18 108.46 105.83 111.58 107.62 114.62 109.53 117.53 111.55 120.36 113.68 123.06 115.92 125.66 118.25 128.2 120.71 129.51 122.07 130.83 123.53 133.46 126.8 136.22 130.33 136.86 131.22 137.14 131.67 137.41 132.07 137.62 132.48 137.8 132.86 137.87 133.05 137.94 133.22 138.01 133.56 138.07 133.84 138.1 134.14 138.14 134.75"/>
  <polygon class="cls-2" points="320.45 114.48 321.5 110.96 322.52 107.01 322.93 105.24 323.35 103.04 323.52 101.93 323.6 100.85 323.62 100.34 323.6 99.86 323.57 99.4 323.52 99.19 323.47 98.99 323.43 98.81 323.35 98.57 323.26 98.35 323.12 98.11 322.99 97.86 322.83 97.6 322.47 97.05 320.86 94.85 318.79 92.15 316.6 89.58 314.34 87.06 311.98 84.65 309.53 82.34 306.96 80.11 304.3 77.99 301.52 75.99 298.65 74.1 295.68 72.32 292.59 70.65 289.39 69.12 286.09 67.71 282.67 66.44 279.14 65.29 275.49 64.29 271.92 63.5 267.98 62.82 263.74 62.31 259.35 61.97 254.87 61.83 250.43 61.92 246.1 62.27 244.03 62.56 242.03 62.91 240.24 63.26 239.19 63.5 238.14 63.8 237.65 63.98 237.16 64.15 236.93 64.25 236.72 64.36 236.5 64.47 236.31 64.58 236.12 64.7 235.95 64.82 235.8 64.94 235.64 65.07 235.51 65.21 235.4 65.38 235.24 65.68 235.16 66 235.14 66.2 235.12 66.39 235.12 66.59 235.12 66.81 235.14 67.04 235.17 67.27 235.26 67.75 235.38 68.24 235.67 69.29 237.05 73.27 238.14 77.31 238.57 79.29 238.74 80.24 238.84 81.17 239.11 84.75 239.18 88.32 239.06 91.81 238.84 95.11 238.64 97.24 238.57 98.27 238.56 98.77 238.57 99.27 241.18 99.19 243.77 98.97 248.86 98.34 253.85 97.7 256.33 97.52 258.77 97.47 261.2 97.58 263.55 97.79 265.83 98.09 268.07 98.5 270.2 98.99 272.3 99.58 274.34 100.23 276.32 100.97 278.23 101.77 280.11 102.63 283.7 104.48 287.14 106.52 290.43 108.68 296.76 113.22 302.75 118.08 308.55 123.34 310.02 124.61 311.55 125.81 313.11 126.9 313.93 127.41 314.76 127.89 315.69 126.41 316.53 124.84 317.28 123.25 317.99 121.59 319.27 118.11 320.45 114.48"/>
  <polygon class="cls-3" points="234 94.16 233.88 87.51 233.74 85.79 233.51 84.14 233.37 83.36 233.19 82.61 233 81.92 232.77 81.29 232.67 81.09 232.56 80.89 232.3 80.43 231.63 79.41 230.12 77.42 228.2 75.02 226.2 72.74 224.15 70.56 222 68.47 219.78 66.47 217.5 64.56 212.7 60.96 208.54 58.23 204.2 55.76 199.68 53.54 194.93 51.58 189.93 49.9 184.68 48.46 179.14 47.33 173.29 46.44 168.97 46.06 164.81 45.9 160.77 45.98 156.88 46.26 153.07 46.74 149.34 47.38 142.03 49.08 137.78 50.2 135.71 50.8 133.69 51.47 132.72 51.85 131.76 52.25 130.83 52.67 129.92 53.14 129.05 53.65 128.21 54.2 127.42 54.78 127.05 55.09 126.69 55.44 127.99 56.8 129.3 58.25 131.83 61.38 134.24 64.72 136.49 68.15 137.9 70.81 138.3 71.5 138.49 71.81 138.69 72.1 138.87 72.35 139.06 72.56 139.24 72.74 139.4 72.87 139.66 72.98 140 73.06 140.17 73.1 140.37 73.11 140.57 73.11 140.77 73.12 141.22 73.11 141.7 73.1 142.71 72.97 144.79 72.58 146.58 72.17 150.2 71.34 153.65 70.65 155.47 70.36 157.43 70.17 161.53 69.91 165.61 69.91 169.27 70.1 177.1 70.89 184.36 72.06 187.78 72.81 191.06 73.68 194.21 74.65 197.22 75.76 201.73 77.73 205.98 79.9 209.95 82.32 211.85 83.59 213.69 84.92 215.45 86.31 217.15 87.78 218.8 89.28 220.38 90.84 221.91 92.47 223.36 94.18 224.78 95.93 226.13 97.75 229.49 102.74 231.24 105.31 233.17 107.85 233.46 106.28 233.67 104.65 233.91 101.24 234 94.16"/>
  <polygon class="cls-1" points="117.83 52.68 114.75 49.92 111.41 47.24 107.83 44.72 104 42.36 102.03 41.28 99.98 40.25 97.9 39.28 95.75 38.4 93.56 37.63 91.31 36.91 89.03 36.31 86.7 35.81 83.66 35.29 80.49 34.92 78.86 34.79 77.19 34.74 76.78 34.74 76.36 34.74 75.53 34.75 73.84 34.83 68.16 35.43 62.75 36.33 57.64 37.52 52.81 39.02 50.47 39.87 48.22 40.8 46 41.79 43.87 42.83 41.8 43.95 39.78 45.14 37.83 46.37 35.93 47.68 34.09 49.05 32.3 50.48 28.88 53.49 25.65 56.73 22.66 60.17 19.83 63.8 17.19 67.62 14.73 71.6 12.44 75.76 16.3 72.78 20.34 69.92 24.56 67.23 28.98 64.73 33.59 62.43 38.41 60.37 43.44 58.54 48.68 56.96 52.94 55.92 57.52 55.03 62.32 54.33 67.25 53.83 72.25 53.6 77.24 53.66 79.71 53.83 82.14 54.09 84.51 54.43 86.85 54.89 93.61 56.59 100 58.65 106.03 60.95 111.75 63.45 118.19 66.75 124.29 70.31 135.67 77.69 135.88 77.8 136.07 77.93 136.25 78.05 136.45 78.19 137.21 78.82 137.6 79.11 137.78 79.23 137.96 79.36 138.15 79.47 138.32 79.54 138.52 79.61 138.69 79.63 134.2 72.51 129.26 65.55 126.61 62.17 123.81 58.87 120.88 55.7 117.83 52.68"/>
  <polygon class="cls-3" points="206.89 33.04 203.18 30.07 199.32 27.27 195.27 24.71 193.16 23.52 190.98 22.42 188.75 21.39 186.42 20.45 184.01 19.62 181.49 18.86 178.89 18.22 176.16 17.71 173.33 17.28 170.39 17 168.35 16.92 167.36 16.9 166.37 16.92 164.44 17 162.58 17.14 155.72 18.12 152.75 18.67 149.91 19.37 147.21 20.19 144.61 21.11 142.08 22.11 139.62 23.22 134.84 25.57 131.78 27.23 128.79 29 125.92 30.88 123.17 32.9 120.55 35.04 118.09 37.34 116.92 38.55 115.79 39.8 114.72 41.1 113.67 42.45 116.97 44.96 120.33 47.42 131.33 42.95 137.01 40.81 142.93 38.88 149.1 37.29 152.33 36.64 155.63 36.12 159.07 35.74 162.62 35.5 166.3 35.43 170.11 35.54 171.81 35.64 173.49 35.84 176.82 36.37 183.11 37.75 186.46 38.64 189.73 39.66 192.93 40.8 196.05 42.04 202.05 44.78 207.8 47.83 213.24 51.13 218.45 54.53 228.2 61.53 226.07 57.44 223.75 53.51 221.28 49.78 218.67 46.16 215.9 42.71 213.03 39.36 206.89 33.04"/>
  <polygon class="cls-1" points="104.13 208.36 102.69 208.36 101.23 208.36 98.94 208.14 96.77 207.82 94.66 207.43 92.64 206.96 90.67 206.45 88.75 205.86 85.1 204.57 70.95 198.68 69.23 198.34 67.41 198.07 65.54 197.87 63.63 197.74 59.7 197.63 55.71 197.76 51.79 198.11 48.08 198.64 44.64 199.35 43.08 199.75 41.61 200.2 39.48 198.15 37.47 196.01 33.47 191.63 36.74 189.66 40.2 187.84 42 186.99 43.86 186.22 45.77 185.5 47.76 184.89 49.79 184.35 51.91 183.93 54.08 183.61 56.35 183.41 58.68 183.35 61.12 183.41 63.63 183.65 66.23 184.03 67.33 184.25 68.38 184.5 69.4 184.78 70.41 185.1 72.3 185.8 74.13 186.62 75.89 187.52 77.58 188.48 80.9 190.53 84.36 192.59 86.12 193.52 87.93 194.31 88.86 194.66 89.83 194.98 90.83 195.28 91.86 195.54 92.92 195.76 94.04 195.95 95.19 196.1 96.4 196.2 102.05 196.41 104.76 196.34 106.05 196.21 107.32 196.06 107.8 195.97 108.26 195.86 109.17 195.6 111.02 194.98 111.99 194.68 112.46 194.55 112.99 194.45 113.52 194.36 114.04 194.29 114.62 194.25 114.9 194.25 115.2 194.25 115.68 195.69 115.8 196.06 115.89 196.41 115.98 196.79 116 196.98 116.04 197.16 116.09 197.92 116.1 198.64 116.09 199.33 116.04 200.01 115.94 200.62 115.83 201.23 115.74 201.53 115.67 201.81 115.57 202.08 115.49 202.34 115.38 202.61 115.25 202.85 115.12 203.1 115.01 203.35 114.87 203.59 114.72 203.82 114.42 204.24 114.09 204.65 113.73 205.03 113.35 205.4 112.93 205.72 112.51 206.04 112.05 206.33 111.57 206.59 111.09 206.85 110.58 207.07 110.05 207.27 109.52 207.46 108.96 207.62 107.81 207.9 106.62 208.12 105.39 208.27 104.13 208.36"/>
  <polygon class="cls-1" points="0 115.18 0 111.09 0 107.01 .29 106.95 .44 106.81 .51 106.64 .53 106.47 .62 106.23 .69 105.97 .79 105.43 .95 104.33 1.24 102.04 2.05 97.87 3.04 93.88 3.53 91.78 3.83 90.71 3.98 90.25 4.07 90.06 4.13 89.88 4.29 89.58 4.42 89.43 4.55 89.28 4.69 89.12 4.85 88.95 5.19 88.64 5.58 88.3 6 87.96 6.92 87.32 10.23 85.17 20.48 78.81 25.66 75.89 30.97 73.15 36.09 70.72 41.33 68.51 46.75 66.56 52.39 64.95 55.28 64.29 58.28 63.73 61.35 63.26 64.53 62.93 67.8 62.73 71.18 62.64 74.66 62.69 78.28 62.91 83.86 63.51 89.24 64.43 94.4 65.65 99.37 67.16 104.13 68.89 108.65 70.86 112.93 73.02 116.99 75.36 120.56 77.62 124 80.03 127.26 82.56 130.36 85.21 133.27 88 135.99 90.92 138.49 93.99 140.79 97.2 141.77 103.48 142.42 110.47 142.59 114.1 142.59 117.71 142.41 121.26 142.04 124.72 138.9 120.6 135.62 116.68 132.18 112.96 128.55 109.44 124.73 106.15 120.67 103.06 116.35 100.22 111.75 97.62 108.2 95.85 104.49 94.22 100.58 92.71 96.53 91.36 92.32 90.2 87.93 89.22 83.39 88.45 78.68 87.93 74.89 87.68 71.2 87.59 67.64 87.63 64.14 87.81 60.75 88.09 57.45 88.49 54.24 89.03 51.11 89.64 45.1 91.17 39.42 93.03 34.01 95.14 28.9 97.47 22.33 100.96 15.96 104.88 4.13 113.1 3.08 113.87 2.52 114.24 1.96 114.6 1.69 114.73 1.41 114.88 1.14 115 .89 115.08 .65 115.16 .42 115.19 .19 115.19 0 115.18"/>
  <polygon class="cls-2" points="326.12 85.45 326.07 85.8 326.02 86.18 325.97 86.96 325.93 88.55 325.89 89.31 325.85 89.7 325.8 90.06 325.72 90.41 325.66 90.76 325.56 91.08 325.43 91.38 318.32 81.29 314.57 76.64 312.58 74.41 310.48 72.31 308.28 70.29 305.95 68.38 303.52 66.57 300.97 64.86 298.31 63.26 295.53 61.78 292.66 60.39 289.67 59.12 286.58 57.97 283.37 56.93 280.06 56.01 276.63 55.2 273.12 54.54 269.5 53.97 265.79 53.54 261.93 53.23 257.95 53.09 256.93 53.07 255.88 53.07 253.85 53.12 249.76 53.4 247.81 53.64 245.89 53.92 242.4 54.57 238.98 55.3 235.11 56.21 234.08 56.36 233.58 56.41 233.12 56.45 232.89 56.46 232.68 56.45 232.48 56.45 232.28 56.43 231.95 56.38 231.65 56.27 231.47 56.15 231.3 55.93 231.14 55.67 230.96 55.37 230.27 53.92 228.99 51.77 227.63 49.68 224.74 45.69 218.8 38.42 219.23 38.03 219.69 37.66 220.17 37.31 220.68 36.98 221.18 36.67 221.7 36.37 222.79 35.8 223.89 35.31 225.03 34.85 227.36 34.02 234.96 31.73 238.98 30.78 243.14 29.98 247.41 29.38 251.81 29 256.33 28.88 260.98 29.03 265.76 29.47 270.4 30.12 274.91 30.97 279.24 32.03 283.43 33.29 287.47 34.72 291.37 36.34 295.13 38.1 298.74 40.05 302.2 42.14 305.5 44.37 308.67 46.75 311.68 49.23 314.57 51.84 317.31 54.56 319.89 57.37 322.94 61.01 323.64 61.99 324.26 62.94 324.54 63.41 324.78 63.85 324.99 64.29 325.15 64.7 325.31 65.19 325.43 65.69 325.56 66.22 325.64 66.78 325.78 67.88 325.88 69.05 326.12 73.69 326.15 79.54 326.12 85.45"/>
  <polygon class="cls-2" points="254.89 0 259.72 0 264.57 0 269.92 1.03 274.93 2.3 277.33 3.05 279.65 3.86 281.89 4.79 284.07 5.81 287.16 7.45 290.11 9.25 292.92 11.16 295.66 13.19 298.24 15.36 300.74 17.59 303.14 19.97 305.41 22.44 307.61 24.98 309.72 27.6 313.67 33.09 317.34 38.85 320.71 44.79 320.38 44.85 320.07 44.69 319.63 44.23 314.98 40.78 310.21 37.47 301.73 32.12 297.27 29.61 292.63 27.25 287.79 25.07 282.78 23.14 277.6 21.49 272.17 20.19 268.23 19.51 264.13 19.07 259.93 18.87 258.88 18.87 258.61 18.87 258.34 18.87 257.81 18.87 255.7 18.91 251.48 19.15 247.36 19.59 243.35 20.2 239.53 21.02 234.29 22.42 229.1 24.07 224.02 25.92 219.05 27.92 215.76 29.5 214.76 29.93 213.85 30.27 213.64 30.33 213.44 30.4 213.25 30.45 213.05 30.49 212.72 30.55 212.43 30.55 212.19 30.51 211.99 30.45 211.76 30.35 211.55 30.23 211.35 30.08 211.11 29.91 210.68 29.54 209.87 28.74 209.48 28.36 209.3 28.21 209.1 28.06 207.32 26.82 205.64 25.71 206.67 24.35 207.73 23.06 208.83 21.8 210.01 20.59 211.19 19.42 212.43 18.31 215.01 16.18 217.73 14.18 220.54 12.31 226.39 8.83 229.47 7.23 232.7 5.78 236.04 4.44 239.53 3.28 243.16 2.25 246.92 1.37 250.83 .6 254.89 0"/>
  <polygon class="cls-2" points="244.46 126.75 244.37 126.94 244.32 127.15 240.29 129.07 236.31 131.03 228.7 133.8 220.96 136.43 218.23 137.1 217.58 137.32 217.24 137.43 216.92 137.55 216.6 137.69 216.28 137.84 215.98 138.02 215.7 138.22 216.22 138.59 216.73 138.97 217.21 139.35 217.67 139.78 218.57 140.63 219.43 141.53 222.75 145.27 224.92 144.49 227.27 143.78 229.74 143.14 232.33 142.58 237.84 141.71 243.63 141.13 245.54 141.04 247.35 141.04 249.12 141.11 250.8 141.26 252.41 141.48 253.98 141.76 255.48 142.1 256.92 142.47 259.73 143.33 262.4 144.3 267.56 146.24 267.59 145.59 267.64 144.97 267.73 144.38 267.84 143.83 268 143.3 268.16 142.81 268.36 142.32 268.56 141.85 268.79 141.41 269.04 140.98 269.57 140.14 270.61 138.5 268.61 138.1 266.67 137.64 264.81 137.1 263.01 136.53 259.59 135.21 256.34 133.71 253.25 132.09 250.27 130.36 244.46 126.75"/>
  <polygon class="cls-3" points="228.43 131.86 229.47 128.34 230.5 124.39 230.91 122.62 231.33 120.42 231.5 119.31 231.58 118.23 231.6 117.72 231.58 117.24 231.55 116.78 231.5 116.57 231.45 116.37 231.41 116.18 231.33 115.95 231.23 115.73 231.1 115.49 230.96 115.24 230.81 114.97 230.45 114.42 228.83 112.23 226.77 109.53 224.58 106.96 222.31 104.44 219.96 102.03 217.51 99.71 214.94 97.49 212.28 95.37 209.5 93.37 206.63 91.48 203.66 89.7 200.57 88.03 197.37 86.5 194.07 85.09 190.64 83.82 187.12 82.66 183.47 81.67 179.9 80.87 175.95 80.2 171.72 79.68 167.33 79.35 162.85 79.21 158.41 79.3 154.08 79.65 152.01 79.94 150.01 80.29 148.22 80.64 147.17 80.87 146.12 81.17 145.63 81.36 145.14 81.53 144.9 81.63 144.7 81.74 144.48 81.84 144.28 81.96 144.1 82.08 143.93 82.2 143.78 82.32 143.62 82.45 143.49 82.59 143.38 82.75 143.22 83.05 143.14 83.38 143.11 83.58 143.1 83.77 143.1 83.97 143.1 84.18 143.11 84.42 143.15 84.65 143.24 85.12 143.35 85.62 143.65 86.67 145.03 90.65 146.12 94.68 146.55 96.67 146.72 97.62 146.82 98.54 147.09 102.13 147.16 105.69 147.04 109.19 146.82 112.49 146.62 114.62 146.55 115.64 146.54 116.14 146.55 116.65 149.16 116.57 151.74 116.35 156.84 115.72 161.83 115.08 164.3 114.9 166.75 114.85 169.18 114.95 171.53 115.17 173.81 115.47 176.05 115.87 178.18 116.37 180.28 116.96 182.32 117.61 184.3 118.35 186.21 119.15 188.09 120.01 191.68 121.86 195.11 123.9 198.41 126.05 204.74 130.6 210.73 135.46 216.53 140.72 218 141.99 219.53 143.19 221.09 144.28 221.91 144.79 222.74 145.27 223.67 143.79 224.51 142.22 225.26 140.63 225.97 138.96 227.25 135.49 228.43 131.86"/>
</svg>