<?xml version="1.0" encoding="UTF-8"?>
<svg id="Laag_1" data-name="Laag 1" xmlns="http://www.w3.org/2000/svg" viewBox="0 0 393.85 278.14">
  <defs>
    <style>
      @import "./colors.css";
      .cls-1 {
        fill: oklch(0.7 0.15 230);
      }

      .cls-2 {
        fill: #020202;
      }

      .cls-3 {
        fill: oklch(0.5 0.15 230);
      }

      .cls-4 {
        fill: oklch(0.3 0.15 230);
      }

      .cls-5 {
        fill: #040505;
      }

      .cls-6 {
        fill: #060707;
      }
    </style>
  </defs>
  <polygon class="cls-3" points="222.62 178.35 220.82 178.65 218.97 178.83 217.12 178.91 216.19 178.93 215.27 178.91 211.69 178.7 208.37 178.35 206.69 178.11 205.13 177.77 203.61 177.38 202.2 176.9 200.83 176.36 199.53 175.75 198.27 175.07 197.03 174.36 192.23 171.3 189.84 169.91 188.6 169.27 187.36 168.68 185.98 168.12 184.56 167.61 183.1 167.16 181.58 166.79 180.03 166.47 178.38 166.22 176.68 166.03 174.91 165.92 172.7 165.86 170.59 165.91 168.57 166.07 166.62 166.32 164.76 166.66 162.95 167.05 161.22 167.55 159.56 168.1 157.92 168.71 156.35 169.36 153.3 170.8 147.51 173.93 149.46 176.23 151.52 178.48 155.54 182.64 161.22 181.3 164.07 180.77 166.94 180.37 169.86 180.11 172.84 179.98 175.9 179.98 179.05 180.16 180.27 180.29 181.46 180.46 182.64 180.69 183.74 180.96 184.84 181.28 185.93 181.61 188.02 182.39 196.19 185.97 200.22 187.51 204.55 188.93 206.83 189.53 209.16 190.04 211.52 190.42 213.9 190.66 215.11 190.73 216.31 190.74 218.74 190.66 219.74 190.6 220.82 190.44 221.91 190.27 223.01 190.05 224.08 189.79 224.57 189.65 225.05 189.5 225.5 189.31 225.91 189.13 226.11 189.03 226.29 188.94 226.46 188.84 226.63 188.73 226.9 188.53 227.17 188.31 227.43 188.08 227.69 187.81 227.91 187.55 228.13 187.25 228.34 186.94 228.55 186.63 228.72 186.29 228.9 185.95 229.08 185.58 229.24 185.22 229.37 184.84 229.49 184.44 229.71 183.65 229.8 183.23 229.87 182.82 229.96 181.98 229.99 181.55 230.01 181.11 229.99 180.25 229.95 179.8 229.9 179.38 229.82 178.94 229.76 178.51 229.65 178.09 229.54 177.67 229.4 177.25 229.27 176.83 228.98 176.81 228.69 176.8 228.43 176.8 228.16 176.81 227.91 176.81 227.66 176.83 227.19 176.9 226.72 176.99 226.31 177.09 225.88 177.22 225.49 177.36 224 177.94 223.31 178.17 222.96 178.28 222.62 178.35"/>
  <polygon class="cls-1" points="85.98 161.22 85.89 161.41 85.85 161.62 81.81 163.53 77.83 165.5 70.22 168.27 62.48 170.89 59.75 171.57 59.1 171.78 58.76 171.89 58.44 172.01 58.12 172.16 57.81 172.31 57.51 172.49 57.22 172.68 57.74 173.06 58.25 173.44 58.73 173.82 59.19 174.25 60.09 175.09 60.95 175.99 64.27 179.73 66.45 178.96 68.79 178.25 71.26 177.61 73.85 177.04 79.36 176.17 85.15 175.59 87.07 175.5 88.88 175.5 90.64 175.57 92.32 175.73 93.94 175.94 95.5 176.22 97 176.57 98.45 176.94 101.25 177.8 103.92 178.77 109.08 180.71 109.11 180.06 109.17 179.44 109.25 178.85 109.36 178.29 109.53 177.77 109.68 177.28 109.88 176.78 110.08 176.31 110.31 175.88 110.56 175.45 111.09 174.6 112.13 172.97 110.13 172.57 108.19 172.1 106.33 171.57 104.53 170.99 101.12 169.67 97.87 168.17 94.77 166.55 91.79 164.83 85.98 161.22"/>
  <polygon class="cls-4" points="316.4 161.19 314.32 161.5 312.22 161.68 310.15 161.78 309.64 161.78 309.37 161.78 309.12 161.78 308.11 161.76 306.11 161.66 304.2 161.46 302.36 161.21 300.61 160.9 299.76 160.73 298.91 160.52 298.08 160.27 297.29 160 295.75 159.42 294.28 158.74 292.87 158.03 291.5 157.26 288.86 155.64 283.62 152.41 282.25 151.7 280.84 151.04 279.35 150.45 278.58 150.21 277.81 149.99 276.13 149.57 274.36 149.22 272.53 148.94 270.6 148.72 268.6 148.6 266.56 148.56 264.45 148.6 262.31 148.73 260.76 148.93 259.27 149.17 257.8 149.49 256.38 149.85 255.02 150.28 253.67 150.75 251.08 151.82 241.43 156.77 241.82 157.31 242.24 157.86 243.19 158.96 245.45 161.33 247.49 163.79 248.11 164.45 248.42 164.75 248.71 165.01 248.84 165.11 249.02 165.23 249.29 165.4 249.59 165.55 249.86 165.61 250.18 165.61 250.37 165.6 250.58 165.56 251.03 165.45 251.53 165.33 253.46 164.79 256.75 164.07 260.2 163.54 263.77 163.18 267.39 162.98 269.2 162.98 270.99 163.06 272.78 163.19 274.53 163.38 276.25 163.65 277.93 163.99 279.56 164.42 281.12 164.92 284.51 166.23 287.68 167.63 290.7 168.98 293.71 170.16 298.06 171.66 300.32 172.32 302.71 172.91 305.17 173.36 307.78 173.65 309.12 173.73 310.5 173.76 311.9 173.73 313.35 173.64 315.23 173.41 316.28 173.23 317.31 173 318.33 172.74 318.82 172.59 319.26 172.44 319.71 172.27 320.12 172.08 320.32 171.99 320.49 171.89 320.65 171.8 320.83 171.68 321.11 171.48 321.39 171.25 321.66 170.99 321.91 170.73 322.16 170.43 322.26 170.29 322.39 170.13 322.6 169.81 322.79 169.47 322.99 169.13 323.16 168.74 323.32 168.37 323.47 167.98 323.61 167.58 323.73 167.17 323.84 166.77 323.92 166.34 324.07 165.49 324.12 165.07 324.16 164.63 324.19 164.19 324.19 163.76 324.16 162.89 324.07 162.05 324.02 161.64 323.92 161.22 323.84 160.82 323.71 160.43 323.59 160.03 323.45 159.66 322.86 159.61 322.6 159.6 322.34 159.6 322.07 159.6 321.82 159.61 321.35 159.66 321.1 159.71 320.88 159.75 320.44 159.84 320.02 159.96 319.61 160.12 318.03 160.71 317.24 160.97 316.82 161.09 316.62 161.14 316.4 161.19"/>
  <polygon class="cls-3" points="201.31 155.4 199.31 158.84 199.1 159.3 198.91 159.78 198.81 160.02 198.73 160.27 198.67 160.52 198.61 160.79 198.55 161.05 198.51 161.34 198.48 161.63 198.46 161.9 198.46 162.2 198.48 162.51 198.5 162.82 198.55 163.14 196.67 162.56 194.74 161.87 190.69 160.29 188.53 159.55 186.28 158.9 185.11 158.61 183.9 158.37 182.66 158.16 181.41 158.03 179.67 157.94 177.92 157.92 174.48 158.03 171.62 158.22 168.77 158.53 165.96 158.93 163.23 159.43 160.63 160.02 158.13 160.72 155.77 161.48 153.6 162.33 153.34 162.14 153.12 161.95 152.96 161.71 152.82 161.48 152.56 161.02 152.4 160.83 152.22 160.66 151.87 160.72 151.61 160.84 151.43 161 151.3 161.19 155.96 149.81 155.39 151.81 155.76 151.81 156.11 151.79 156.48 151.74 156.82 151.69 157.16 151.61 157.51 151.52 158.19 151.32 160.8 150.29 167.1 147.81 170.2 146.42 173.24 144.91 174.56 144.2 174.89 144.04 175.17 143.9 175.61 143.8 175.82 143.85 176.13 144 176.51 144.23 176.91 144.5 178.5 145.6 183.58 148.77 186.23 150.22 188.94 151.55 191.78 152.73 194.76 153.8 197.93 154.68 201.31 155.4"/>
  <polygon class="cls-1" points="162.87 134.75 162.85 135.38 162.81 136.03 162.74 136.72 162.63 137.42 162.38 138.79 161.1 143.65 159.64 148.15 158.93 150.32 158.88 150.5 154.22 161.88 154.1 162.08 153.94 162.26 153.76 162.38 153.48 162.45 153.18 162.45 152.86 162.35 152.7 162.27 152.52 162.17 152.35 162.06 152.16 161.94 151.79 161.66 151.43 161.32 150.66 160.54 148.09 157.48 144.38 153.41 140.49 149.54 138.45 147.74 136.35 146 134.17 144.36 131.9 142.82 128.73 140.92 125.34 139.17 121.74 137.56 117.94 136.12 113.96 134.9 109.84 133.88 105.57 133.11 101.19 132.61 96.55 132.31 92.1 132.26 87.8 132.44 83.69 132.83 79.75 133.42 75.96 134.18 72.31 135.1 68.79 136.17 65.39 137.4 62.08 138.73 58.92 140.18 55.82 141.74 49.89 145.07 44.22 148.63 41.42 150.6 38.71 152.66 35.99 154.72 33.15 156.64 32.94 156.35 32.74 156.01 32.35 155.33 32.01 154.6 31.72 153.87 31.17 152.3 30.67 150.71 27.89 140.69 26.72 135.32 26.28 132.67 25.96 130.1 25.85 129.03 25.82 128.45 25.79 127.91 25.82 127.34 25.84 127.08 25.87 126.81 25.9 126.54 25.96 126.3 26.02 126.05 26.1 125.82 26.22 125.54 26.41 125.23 26.54 125.07 26.67 124.91 26.97 124.56 27.29 124.22 27.67 123.85 28.46 123.14 30.19 121.73 31.77 120.55 36.62 117.23 41.65 114.1 51.96 108.4 59.32 104.82 63.02 103.19 66.79 101.69 70.66 100.32 74.68 99.12 78.89 98.08 83.36 97.19 86.67 96.69 90.44 96.29 94.53 96.09 95.6 96.09 96.67 96.1 98.86 96.24 103.27 96.65 107.51 97.25 111.61 98.02 115.56 98.96 119.35 100.04 123.01 101.28 126.52 102.66 129.92 104.18 133.19 105.83 136.31 107.62 139.35 109.53 142.26 111.55 145.09 113.68 147.79 115.92 150.39 118.25 152.93 120.71 154.24 122.07 155.56 123.53 158.19 126.8 160.95 130.33 161.59 131.22 161.87 131.67 162.14 132.07 162.35 132.48 162.53 132.86 162.6 133.05 162.67 133.22 162.74 133.56 162.8 133.84 162.83 134.14 162.87 134.75"/>
  <polygon class="cls-4" points="345.18 114.48 346.22 110.96 347.25 107.01 347.66 105.24 348.08 103.04 348.25 101.93 348.33 100.85 348.35 100.34 348.33 99.86 348.3 99.4 348.25 99.19 348.2 98.99 348.16 98.81 348.08 98.57 347.98 98.35 347.85 98.11 347.71 97.86 347.56 97.6 347.2 97.05 345.58 94.85 343.52 92.15 341.33 89.58 339.06 87.06 336.71 84.65 334.26 82.34 331.69 80.11 329.03 77.99 326.24 75.99 323.38 74.1 320.41 72.32 317.32 70.65 314.12 69.12 310.82 67.71 307.39 66.44 303.87 65.29 300.22 64.29 296.65 63.5 292.7 62.82 288.47 62.31 284.08 61.97 279.6 61.83 275.16 61.92 270.83 62.27 268.76 62.56 266.76 62.91 264.97 63.26 263.92 63.5 262.87 63.8 262.38 63.98 261.89 64.15 261.65 64.25 261.45 64.36 261.23 64.47 261.03 64.58 260.85 64.7 260.68 64.82 260.53 64.94 260.37 65.07 260.24 65.21 260.13 65.38 259.97 65.68 259.88 66 259.86 66.2 259.85 66.39 259.85 66.59 259.85 66.81 259.86 67.04 259.9 67.27 259.99 67.75 260.1 68.24 260.4 69.29 261.78 73.27 262.87 77.31 263.3 79.29 263.47 80.24 263.57 81.17 263.84 84.75 263.91 88.32 263.79 91.81 263.57 95.11 263.37 97.24 263.3 98.27 263.29 98.77 263.3 99.27 265.91 99.19 268.49 98.97 273.59 98.34 278.58 97.7 281.05 97.52 283.49 97.47 285.93 97.58 288.27 97.79 290.56 98.09 292.8 98.5 294.93 98.99 297.03 99.58 299.07 100.23 301.05 100.97 302.96 101.77 304.84 102.63 308.43 104.48 311.86 106.52 315.16 108.68 321.49 113.22 327.48 118.08 333.28 123.34 334.75 124.61 336.28 125.81 337.84 126.9 338.66 127.41 339.49 127.89 340.42 126.41 341.26 124.84 342.01 123.25 342.72 121.59 344 118.11 345.18 114.48"/>
  <polygon class="cls-3" points="258.73 94.16 258.61 87.51 258.47 85.79 258.24 84.14 258.1 83.36 257.92 82.61 257.72 81.92 257.5 81.29 257.4 81.09 257.29 80.89 257.03 80.43 256.36 79.41 254.85 77.42 252.93 75.02 250.93 72.74 248.88 70.56 246.73 68.47 244.51 66.47 242.22 64.56 237.42 60.96 233.27 58.23 228.93 55.76 224.41 53.54 219.66 51.58 214.66 49.9 209.41 48.46 203.87 47.33 198.01 46.44 193.7 46.06 189.54 45.9 185.5 45.98 181.61 46.26 177.8 46.74 174.06 47.38 166.76 49.08 162.51 50.2 160.44 50.8 158.42 51.47 157.45 51.85 156.49 52.25 155.55 52.67 154.64 53.14 153.77 53.65 152.94 54.2 152.15 54.78 151.78 55.09 151.42 55.44 152.72 56.8 154.03 58.25 156.56 61.38 158.97 64.72 161.21 68.15 162.63 70.81 163.03 71.5 163.22 71.81 163.42 72.1 163.6 72.35 163.79 72.56 163.97 72.74 164.13 72.87 164.39 72.98 164.73 73.06 164.9 73.1 165.1 73.11 165.3 73.11 165.5 73.12 165.95 73.11 166.43 73.1 167.44 72.97 169.52 72.58 171.31 72.17 174.92 71.34 178.38 70.65 180.2 70.36 182.15 70.17 186.26 69.91 190.34 69.91 194 70.1 201.83 70.89 209.08 72.06 212.51 72.81 215.79 73.68 218.94 74.65 221.95 75.76 226.46 77.73 230.71 79.9 234.68 82.32 236.58 83.59 238.42 84.92 240.17 86.31 241.87 87.78 243.53 89.28 245.11 90.84 246.64 92.47 248.09 94.18 249.51 95.93 250.85 97.75 254.22 102.74 255.97 105.31 257.9 107.85 258.19 106.28 258.4 104.65 258.64 101.24 258.73 94.16"/>
  <polygon class="cls-1" points="142.55 52.68 139.48 49.92 136.14 47.24 132.56 44.72 128.73 42.36 126.75 41.28 124.71 40.25 122.63 39.28 120.48 38.4 118.29 37.63 116.04 36.91 113.76 36.31 111.43 35.81 108.39 35.29 105.21 34.92 103.59 34.79 101.92 34.74 101.51 34.74 101.09 34.74 100.26 34.75 98.57 34.83 92.89 35.43 87.48 36.33 82.37 37.52 77.54 39.02 75.2 39.87 72.95 40.8 70.73 41.79 68.6 42.83 66.53 43.95 64.51 45.14 62.56 46.37 60.66 47.68 58.82 49.05 57.03 50.48 53.61 53.49 50.38 56.73 47.39 60.17 44.56 63.8 41.92 67.62 39.45 71.6 37.17 75.76 41.03 72.78 45.07 69.92 49.28 67.23 53.71 64.73 58.32 62.43 63.14 60.37 68.16 58.54 73.41 56.96 77.67 55.92 82.25 55.03 87.05 54.33 91.98 53.83 96.98 53.6 101.97 53.66 104.44 53.83 106.87 54.09 109.24 54.43 111.58 54.89 118.34 56.59 124.73 58.65 130.76 60.95 136.48 63.45 142.92 66.75 149.02 70.31 160.4 77.69 160.61 77.8 160.8 77.93 160.98 78.05 161.18 78.19 161.94 78.82 162.32 79.11 162.51 79.23 162.69 79.36 162.88 79.47 163.05 79.54 163.24 79.61 163.42 79.63 158.93 72.51 153.99 65.55 151.34 62.17 148.53 58.87 145.61 55.7 142.55 52.68"/>
  <polygon class="cls-3" points="231.62 33.04 227.9 30.07 224.05 27.27 220 24.71 217.89 23.52 215.71 22.42 213.47 21.39 211.15 20.45 208.73 19.62 206.22 18.86 203.62 18.22 200.89 17.71 198.06 17.28 195.12 17 193.08 16.92 192.09 16.9 191.09 16.92 189.17 17 187.31 17.14 180.45 18.12 177.48 18.67 174.64 19.37 171.94 20.19 169.33 21.11 166.81 22.11 164.35 23.22 159.57 25.57 156.51 27.23 153.52 29 150.65 30.88 147.9 32.9 145.28 35.04 142.82 37.34 141.65 38.55 140.52 39.8 139.45 41.1 138.4 42.45 141.7 44.96 145.05 47.42 156.06 42.95 161.74 40.81 167.66 38.88 173.83 37.29 177.05 36.64 180.36 36.12 183.8 35.74 187.35 35.5 191.03 35.43 194.84 35.54 196.54 35.64 198.22 35.84 201.54 36.37 207.84 37.75 211.19 38.64 214.45 39.66 217.66 40.8 220.78 42.04 226.78 44.78 232.53 47.83 237.97 51.13 243.18 54.53 252.93 61.53 250.8 57.44 248.48 53.51 246.01 49.78 243.39 46.16 240.63 42.71 237.75 39.36 231.62 33.04"/>
  <polygon class="cls-1" points="128.86 208.36 127.41 208.36 125.96 208.36 123.67 208.14 121.5 207.82 119.39 207.43 117.37 206.96 115.4 206.45 113.48 205.86 109.83 204.57 95.68 198.68 93.95 198.34 92.13 198.07 90.27 197.87 88.36 197.74 84.43 197.63 80.44 197.76 76.52 198.11 72.81 198.64 69.37 199.35 67.81 199.75 66.34 200.2 64.21 198.15 62.2 196.01 58.2 191.63 61.47 189.66 64.92 187.84 66.73 186.99 68.58 186.22 70.5 185.5 72.49 184.89 74.52 184.35 76.63 183.93 78.81 183.61 81.08 183.41 83.41 183.35 85.84 183.41 88.36 183.65 90.95 184.03 92.06 184.25 93.11 184.5 94.13 184.78 95.13 185.1 97.03 185.8 98.86 186.62 100.62 187.52 102.3 188.48 105.62 190.53 109.09 192.59 110.85 193.52 112.66 194.31 113.59 194.66 114.55 194.98 115.56 195.28 116.59 195.54 117.65 195.76 118.77 195.95 119.91 196.1 121.12 196.2 126.78 196.41 129.48 196.34 130.77 196.21 132.05 196.06 132.53 195.97 132.99 195.86 133.9 195.6 135.75 194.98 136.72 194.68 137.19 194.55 137.72 194.45 138.25 194.36 138.77 194.29 139.34 194.25 139.63 194.25 139.93 194.25 140.41 195.69 140.53 196.06 140.62 196.41 140.71 196.79 140.73 196.98 140.77 197.16 140.82 197.92 140.83 198.64 140.82 199.33 140.77 200.01 140.67 200.62 140.55 201.23 140.47 201.53 140.4 201.81 140.3 202.08 140.22 202.34 140.11 202.61 139.98 202.85 139.85 203.1 139.73 203.35 139.6 203.59 139.45 203.82 139.14 204.24 138.81 204.65 138.45 205.03 138.08 205.4 137.65 205.72 137.24 206.04 136.78 206.33 136.3 206.59 135.81 206.85 135.31 207.07 134.78 207.27 134.25 207.46 133.68 207.62 132.54 207.9 131.34 208.12 130.12 208.27 128.86 208.36"/>
  <polygon class="cls-1" points="24.73 115.18 24.73 111.09 24.73 107.01 25.02 106.95 25.17 106.81 25.24 106.64 25.26 106.47 25.34 106.23 25.42 105.97 25.52 105.43 25.68 104.33 25.96 102.04 26.78 97.87 27.77 93.88 28.26 91.78 28.56 90.71 28.7 90.25 28.8 90.06 28.86 89.88 29.02 89.58 29.15 89.43 29.28 89.28 29.42 89.12 29.57 88.95 29.91 88.64 30.31 88.3 30.72 87.96 31.64 87.32 34.96 85.17 45.21 78.81 50.39 75.89 55.7 73.15 60.82 70.72 66.06 68.51 71.48 66.56 77.11 64.95 80.01 64.29 83.01 63.73 86.08 63.26 89.26 62.93 92.53 62.73 95.91 62.64 99.39 62.69 103.01 62.91 108.59 63.51 113.97 64.43 119.13 65.65 124.1 67.16 128.85 68.89 133.38 70.86 137.66 73.02 141.72 75.36 145.29 77.62 148.73 80.03 151.99 82.56 155.09 85.21 158 88 160.72 90.92 163.21 93.99 165.52 97.2 166.49 103.48 167.15 110.47 167.31 114.1 167.31 117.71 167.14 121.26 166.76 124.72 163.63 120.6 160.35 116.68 156.91 112.96 153.28 109.44 149.46 106.15 145.4 103.06 141.08 100.22 136.48 97.62 132.93 95.85 129.22 94.22 125.31 92.71 121.26 91.36 117.05 90.2 112.66 89.22 108.12 88.45 103.41 87.93 99.62 87.68 95.93 87.59 92.36 87.63 88.87 87.81 85.48 88.09 82.17 88.49 78.97 89.03 75.84 89.64 69.83 91.17 64.15 93.03 58.74 95.14 53.63 97.47 47.06 100.96 40.68 104.88 28.86 113.1 27.81 113.87 27.25 114.24 26.69 114.6 26.42 114.73 26.14 114.88 25.87 115 25.62 115.08 25.38 115.16 25.15 115.19 24.92 115.19 24.73 115.18"/>
  <polygon class="cls-4" points="350.85 85.45 350.8 85.8 350.75 86.18 350.7 86.96 350.66 88.55 350.62 89.31 350.58 89.7 350.53 90.06 350.45 90.41 350.39 90.76 350.29 91.08 350.16 91.38 343.05 81.29 339.3 76.64 337.31 74.41 335.21 72.31 333 70.29 330.68 68.38 328.25 66.57 325.7 64.86 323.04 63.26 320.26 61.78 317.39 60.39 314.4 59.12 311.31 57.97 308.1 56.93 304.79 56.01 301.36 55.2 297.85 54.54 294.23 53.97 290.51 53.54 286.66 53.23 282.68 53.09 281.66 53.07 280.61 53.07 278.58 53.12 274.49 53.4 272.54 53.64 270.62 53.92 267.13 54.57 263.71 55.3 259.84 56.21 258.81 56.36 258.31 56.41 257.85 56.45 257.62 56.46 257.4 56.45 257.21 56.45 257.01 56.43 256.68 56.38 256.38 56.27 256.2 56.15 256.03 55.93 255.86 55.67 255.69 55.37 255 53.92 253.72 51.77 252.36 49.68 249.47 45.69 243.53 38.42 243.96 38.03 244.42 37.66 244.9 37.31 245.4 36.98 245.91 36.67 246.43 36.37 247.51 35.8 248.62 35.31 249.76 34.85 252.09 34.02 259.69 31.73 263.71 30.78 267.86 29.98 272.14 29.38 276.53 29 281.06 28.88 285.71 29.03 290.49 29.47 295.13 30.12 299.64 30.97 303.96 32.03 308.16 33.29 312.2 34.72 316.1 36.34 319.85 38.1 323.46 40.05 326.93 42.14 330.23 44.37 333.4 46.75 336.41 49.23 339.3 51.84 342.04 54.56 344.61 57.37 347.66 61.01 348.37 61.99 348.99 62.94 349.27 63.41 349.51 63.85 349.72 64.29 349.88 64.7 350.03 65.19 350.16 65.69 350.29 66.22 350.37 66.78 350.51 67.88 350.61 69.05 350.85 73.69 350.88 79.54 350.85 85.45"/>
  <polygon class="cls-4" points="279.62 0 284.45 0 289.3 0 294.65 1.03 299.66 2.3 302.06 3.05 304.38 3.86 306.62 4.79 308.79 5.81 311.89 7.45 314.84 9.25 317.65 11.16 320.39 13.19 322.97 15.36 325.47 17.59 327.86 19.97 330.14 22.44 332.34 24.98 334.44 27.6 338.4 33.09 342.07 38.85 345.44 44.79 345.11 44.85 344.8 44.69 344.35 44.23 339.71 40.78 334.94 37.47 326.46 32.12 322 29.61 317.36 27.25 312.52 25.07 307.51 23.14 302.33 21.49 296.9 20.19 292.95 19.51 288.86 19.07 284.66 18.87 283.6 18.87 283.33 18.87 283.06 18.87 282.54 18.87 280.43 18.91 276.21 19.15 272.09 19.59 268.08 20.2 264.26 21.02 259.02 22.42 253.83 24.07 248.75 25.92 243.78 27.92 240.49 29.5 239.49 29.93 238.58 30.27 238.37 30.33 238.17 30.4 237.98 30.45 237.78 30.49 237.45 30.55 237.16 30.55 236.92 30.51 236.71 30.45 236.49 30.35 236.28 30.23 236.07 30.08 235.83 29.91 235.41 29.54 234.59 28.74 234.21 28.36 234.03 28.21 233.83 28.06 232.05 26.82 230.37 25.71 231.4 24.35 232.46 23.06 233.56 21.8 234.74 20.59 235.92 19.42 237.16 18.31 239.74 16.18 242.46 14.18 245.27 12.31 251.12 8.83 254.2 7.23 257.43 5.78 260.77 4.44 264.26 3.28 267.89 2.25 271.64 1.37 275.56 .6 279.62 0"/>
  <path class="cls-5" d="M382.29,264.4l.81-.35.74-.39.71-.41.66-.44.61-.47.29-.22.28-.24.51-.51.47-.5.21-.29.21-.28.18-.3.17-.29.16-.32.14-.32.15-.32.1-.35.12-.34.07-.37.1-.37.05-.37.06-.39.03-.39.03-.84v-.59s-.09-.59-.09-.59l-.03-.28-.05-.28-.06-.25-.06-.27-.07-.25-.1-.25-.19-.47-.11-.21-.12-.23-.13-.22-.14-.21-.3-.38-.33-.4-.17-.18-.19-.18-.37-.33-.39-.34-.43-.3-.45-.28-.49-.27-.47-.24-.5-.22-.52-.21-.5-.17-.53-.15-.52-.14-.52-.11-.56-.09-1.16-.14-1.27-.09-2.85-.09h-14.97v30.58h8.87v-11.2h4.13l9.43,11.2h10.91l-11.56-13.1ZM379.92,256.6l-.03.31-.04.28-.04.27-.05.25-.08.23-.08.21-.12.22-.1.19-.15.17-.14.18-.16.17-.17.19-.2.18-.22.16-.22.15-.25.16-.26.15-.29.12-.28.13-.64.16-.33.08-.35.05-.77.08-.86.06-1.95.04h-2.76v-8.22h4.73s1.32.05,1.32.05l.59.05.54.1.27.06.24.05.24.06.24.09.3.13.31.12.26.16.23.14.23.18.18.18.17.2.15.19.12.21.11.21.1.23.08.26.05.23.05.27.03.26v.6Z"/>
  <polygon class="cls-5" points="354.46 277.51 329.42 277.51 329.42 246.92 354.46 246.92 354.46 252.85 338.29 252.85 338.29 258.13 353.29 258.13 353.29 264.03 338.29 264.03 338.29 271.59 354.46 271.59 354.46 277.51"/>
  <polygon class="cls-5" points="325.47 252.85 314.67 252.85 314.67 277.51 305.74 277.51 305.74 252.85 294.93 252.85 294.93 246.93 325.47 246.93 325.47 252.85"/>
  <polygon class="cls-5" points="291.44 268.52 291.42 269.04 291.38 269.52 291.32 270.01 291.24 270.49 291.11 270.96 291.04 271.18 290.97 271.41 290.89 271.64 290.81 271.86 290.61 272.3 290.51 272.53 290.4 272.74 290.15 273.14 289.88 273.54 289.61 273.93 289.44 274.1 289.29 274.29 288.95 274.64 288.6 274.95 288.2 275.28 287.76 275.6 287.3 275.87 286.82 276.15 286.32 276.43 285.8 276.66 285.27 276.88 284.7 277.08 284.12 277.27 283.5 277.43 282.85 277.59 282.15 277.7 281.42 277.81 279.88 277.95 278.18 277.98 275.86 277.95 273.66 277.83 271.68 277.64 269.94 277.4 269.94 271.2 270.8 271.2 271.94 271.56 273.11 271.89 273.41 271.96 273.75 272.03 274.11 272.09 274.49 272.14 275.31 272.2 276.2 272.21 277.35 272.18 277.88 272.14 278.36 272.07 278.83 271.98 279.03 271.94 279.22 271.89 279.42 271.84 279.62 271.76 279.8 271.7 279.95 271.64 280.27 271.49 280.56 271.33 280.84 271.14 281.09 270.96 281.3 270.75 281.5 270.51 281.69 270.28 281.82 270.03 281.95 269.79 282.06 269.52 282.17 269.25 282.25 268.97 282.3 268.71 282.38 268.41 282.42 268.12 282.43 267.82 282.48 266.45 282.5 264.76 282.5 252.56 274.59 252.56 274.59 246.92 291.44 246.92 291.44 268.52"/>
  <polygon class="cls-5" points="267.53 277.51 247.28 277.51 247.28 272.09 252.94 272.09 252.94 252.35 247.28 252.35 247.28 246.92 267.53 246.92 267.53 252.35 261.87 252.35 261.87 272.09 267.53 272.09 267.53 277.51"/>
  <path class="cls-5" d="M243.57,267.4l-.02-.19-.02-.17-.04-.35-.08-.34-.09-.33-.09-.33-.11-.31-.13-.3-.16-.29-.16-.29-.18-.28-.19-.25-.22-.25-.46-.5-.24-.24-.27-.22-.28-.2-.29-.2-.3-.19-.3-.18-.66-.32-.68-.3-.39-.13-.36-.11-.78-.22-.83-.15v-.16l.59-.26.54-.27.53-.28.48-.33.46-.36.41-.36.19-.18.21-.19.17-.22.15-.2.33-.43.14-.22.13-.22.11-.23.1-.24.11-.24.07-.23.1-.26.07-.26.05-.24.04-.27.04-.25.02-.28.03-.27v-.52l-.03-.23-.02-.22v-.23s-.04-.22-.04-.22l-.06-.22-.03-.22-.06-.21-.13-.43-.18-.41-.19-.39-.11-.18-.12-.18-.12-.2-.13-.18-.15-.18-.15-.15-.14-.16-.17-.17-.18-.15-.18-.16-.38-.29-.41-.26-.44-.24-.49-.25-.47-.2-.48-.18-.97-.3-.95-.25-.48-.08-.5-.08-1.09-.1-1.41-.08-3.62-.07h-13.43v30.59h15.1l1.81-.03,1.63-.12,1.47-.17.67-.13.64-.12.6-.17.6-.17.59-.21.56-.24.54-.24.56-.28.53-.3.52-.32.42-.31.41-.32.38-.33.36-.33.34-.39.31-.37.29-.43.27-.41.23-.47.21-.44.18-.46.07-.26.07-.26.1-.48.06-.26.03-.27.04-.53.02-.56v-.37l-.04-.36ZM222.87,252.54h3.16l1.76.03.69.04.63.07.32.04.28.06.26.08.25.08.26.09.24.11.23.12.19.12.19.17.15.16.14.16.12.19.11.2.08.18.08.19.05.19.05.18.05.19v.2s.01.42.01.42v.25s-.06.23-.06.23l-.04.21-.04.21-.08.23-.07.19-.09.19-.1.17-.12.18-.16.16-.2.15-.2.15-.24.15-.26.14-.29.13-.24.06-.23.09-.25.04-.29.06-.3.07-.33.02-.71.07-1.63.02-1.98.02h-1.39v-6.46ZM234.33,268.3l-.02.27-.06.24-.04.27-.08.22-.08.23-.11.23-.13.23-.15.2-.16.2-.2.19-.24.18-.24.16-.28.15-.3.16-.34.1-.35.13-.36.11-.36.08-.36.08-.38.08-.38.03-.39.03h-.41s-2.16.01-2.16.01l-3.23.02h-.66v-7.62h1.95l1.97.02,1.87.02.86.02.78.05.67.08.29.05.27.08.38.11.34.1.31.15.29.12.25.15.23.18.21.18.16.18.16.2.13.24.1.24.08.29.08.28.05.32.04.34v.62Z"/>
  <polygon class="cls-5" points="209.27 252.85 193.34 252.85 193.34 258.55 208.1 258.55 208.1 264.46 193.34 264.46 193.34 277.51 184.46 277.51 184.46 246.93 209.27 246.93 209.27 252.85"/>
  <polygon class="cls-5" points="178.4 277.51 153.37 277.51 153.37 246.92 178.4 246.92 178.4 252.85 162.24 252.85 162.24 258.13 177.24 258.13 177.24 264.03 162.24 264.03 162.24 271.59 178.4 271.59 178.4 277.51"/>
  <path class="cls-5" d="M147.97,261.32l-.06-.89-.1-.84-.13-.85-.16-.81-.21-.79-.24-.76-.27-.75-.32-.72-.35-.69-.39-.68-.43-.63-.47-.62-.5-.6-.56-.57-.56-.55-.62-.5-.64-.48-.65-.47-.69-.42-.73-.37-.74-.37-.78-.31-.79-.28-.84-.25-.87-.23-.89-.18-.91-.14-.95-.12-.96-.1-1-.04-1.02-.03-1.03.03-1.02.04-.96.1-.94.12-.92.14-.89.18-.85.23-.83.25-.82.28-.78.31-.74.37-.73.37-.69.42-.65.47-.64.48-.6.5-.59.55-.54.57-.48.6-.47.62-.42.63-.4.68-.35.69-.32.72-.14.35-.15.4-.22.76-.22.79-.3,1.66-.08.84-.05.89-.02.91.02.89.05.89.08.85.16.83.14.82.22.77.22.77.15.37.14.37.32.71.35.69.4.67.42.65.47.62.48.59.54.57.59.54.6.54.64.48.65.46.69.43.73.37.74.35.78.31.82.31.83.25.85.2.89.19.92.15.94.13.96.1,1.02.02,1.03.02,1.02-.02,1.01-.02.97-.1.94-.13.92-.15.89-.19.87-.2.83-.25.81-.31.78-.31.74-.35.72-.37.7-.43.65-.46.64-.48,1.2-1.08.52-.57.51-.59.45-.62.43-.65.39-.67.35-.69.32-.71.29-.74.22-.77.21-.77.16-.82.13-.83.1-.85.06-.89.02-.89-.02-.91ZM138.71,262.21l-.03,1.23-.13,1.18-.1.54-.1.54-.12.49-.15.5-.17.45-.17.46-.22.43-.23.43-.24.41-.29.38-.28.37-.32.36-.31.3-.29.26-.34.27-.32.23-.18.1-.18.12-.35.2-.37.16-.39.16-.39.15-.39.12-.41.1-.41.08-.4.07-.43.03-.42.03h-.86l-.42-.03-.41-.03-.43-.07-.39-.08-.4-.1-.4-.11-.39-.14-.37-.16-.2-.07-.18-.11-.37-.17-.17-.1-.16-.13-.18-.1-.15-.13-.34-.25-.32-.27-.27-.3-.28-.31-.29-.34-.25-.35-.25-.38-.21-.4-.22-.43-.2-.44-.18-.48-.16-.5-.16-.51-.11-.55-.1-.56-.08-.59-.06-.61-.04-1.32.02-.67.03-.64.05-.61.08-.61.1-.57.13-.55.16-.53.16-.52.18-.48.22-.49.22-.41.22-.41.24-.39.26-.37.27-.32.28-.32.32-.27.34-.28.31-.25.37-.23.14-.12.18-.09.36-.2.18-.09.19-.07.37-.16.37-.13.4-.11.39-.08.38-.07.41-.05.41-.06h.4s.43-.02.43-.02h.43s.4.02.4.02l.22.03.2.03.4.05.39.09.41.08.38.11.39.14.38.15.37.17.37.2.33.21.18.1.16.13.32.25.32.28.15.16.15.14.28.3.28.34.26.36.13.17.11.2.21.41.23.42.2.45.17.48.18.49.16.51.11.55.11.59.07.58.08.63.03.65v.67Z"/>
  <polygon class="cls-5" points="110.38 277.51 85.41 277.51 85.41 246.92 94.34 246.92 94.34 271.59 110.38 271.59 110.38 277.51"/>
  <polygon class="cls-2" points="64.52 277.51 39.48 277.51 39.48 246.92 64.52 246.92 64.52 252.85 48.36 252.85 48.36 258.13 63.35 258.13 63.35 264.03 48.36 264.03 48.36 271.59 64.52 271.59 64.52 277.51"/>
  <path class="cls-6" d="M34.07,261.16l-.11-1.05-.16-1.03-.23-.98-.12-.49-.16-.45-.15-.47-.21-.43-.4-.88-.5-.84-.53-.8-.58-.76-.64-.71-.68-.68-.74-.6-.76-.61-.83-.56-.88-.49-.52-.28-.59-.27-.59-.23-.62-.22-1.35-.43-1.46-.33-1.63-.29-1.74-.19-1.9-.11-2.06-.06H1.39v30.59h12.2l2.01-.03,1.85-.1,1.73-.18,1.57-.24.75-.12.74-.19.72-.19.69-.23.69-.25.65-.26.67-.31.66-.31.81-.48.78-.53.76-.58.73-.64.66-.66.65-.7.6-.78.59-.83.25-.41.26-.45.23-.44.21-.44.19-.47.2-.45.16-.46.14-.48.14-.48.11-.5.08-.49.09-.49.05-.53.05-.51.03-1.04-.02-1.1ZM24.84,262.93l-.06.71-.08.7-.12.65-.08.32-.08.29-.2.61-.1.28-.12.26-.13.29-.15.24-.14.27-.16.25-.17.23-.18.24-.18.24-.21.22-.19.21-.23.2-.23.22-.24.19-.51.37-.26.19-.28.15-.59.34-.35.16-.36.14-.72.26-.73.22-.74.13-.86.13-1.06.08-2.77.06h-2.24v-19.13h2.24l2.52.04.99.07.8.1.73.12.69.2.71.2.68.3.65.31.62.34.28.19.27.19.51.4.48.44.21.23.21.23.19.24.18.25.19.27.15.25.17.29.13.28.13.28.12.28.11.3.1.3.09.33.09.31.14.66.08.68.06.72.03.74-.03.74Z"/>
  <polygon class="cls-2" points="391.37 240.44 390.93 240.6 390.43 240.76 389.23 241.06 388.55 241.19 387.9 241.3 387.23 241.34 386.56 241.36 385.81 241.34 385.46 241.32 385.12 241.26 384.78 241.21 384.45 241.13 384.13 241.05 383.83 240.95 383.52 240.86 383.23 240.73 382.97 240.58 382.71 240.44 382.44 240.29 382.21 240.13 381.98 239.93 381.76 239.74 381.54 239.53 381.35 239.31 381.17 239.09 380.99 238.85 380.84 238.61 380.69 238.34 380.57 238.07 380.45 237.81 380.36 237.53 380.26 237.22 380.18 236.93 380.13 236.61 380.06 236.27 380.03 235.94 380.01 235.59 380.01 235.24 380.01 234.91 380.03 234.59 380.06 234.25 380.13 233.95 380.19 233.65 380.26 233.34 380.36 233.06 380.46 232.77 380.57 232.5 380.71 232.25 380.85 231.98 381.01 231.74 381.17 231.51 381.37 231.27 381.55 231.04 381.76 230.83 382 230.63 382.24 230.44 382.48 230.27 382.73 230.11 382.99 229.96 383.27 229.82 383.58 229.7 383.87 229.57 384.18 229.49 384.49 229.4 384.83 229.32 385.17 229.28 385.53 229.22 385.89 229.19 386.66 229.17 387.25 229.17 387.83 229.22 388.38 229.28 388.92 229.38 389.19 229.43 389.48 229.51 389.76 229.59 390.06 229.69 390.68 229.91 391.32 230.21 391.32 232.95 390.96 232.95 390.7 232.74 390.31 232.48 389.88 232.22 389.46 231.96 389.23 231.84 388.96 231.74 388.68 231.63 388.38 231.53 388.06 231.45 387.72 231.4 387.39 231.36 387.05 231.36 386.83 231.36 386.65 231.36 386.45 231.38 386.25 231.42 386.08 231.45 385.89 231.49 385.72 231.53 385.54 231.59 385.23 231.72 384.9 231.9 384.62 232.09 384.34 232.31 384.08 232.57 383.87 232.85 383.79 233.01 383.7 233.17 383.61 233.32 383.54 233.52 383.47 233.69 383.4 233.89 383.35 234.09 383.31 234.3 383.27 234.52 383.26 234.73 383.23 234.95 383.23 235.21 383.23 235.43 383.26 235.67 383.27 235.9 383.31 236.11 383.35 236.32 383.39 236.53 383.43 236.74 383.5 236.93 383.58 237.1 383.65 237.28 383.74 237.43 383.84 237.6 383.92 237.76 384.06 237.9 384.16 238.03 384.31 238.19 384.42 238.31 384.6 238.41 384.73 238.54 384.89 238.62 385.07 238.71 385.24 238.8 385.42 238.89 385.61 238.95 385.81 239.01 386.02 239.06 386.23 239.1 386.47 239.14 386.7 239.17 386.92 239.18 387.17 239.21 387.42 239.21 387.62 239.21 387.81 239.21 388.02 239.18 388.22 239.17 388.22 236.87 385.81 236.87 385.81 234.66 391.37 234.66 391.37 240.44"/>
  <polygon class="cls-2" points="377.64 241.12 374.65 241.12 369.55 233.06 369.55 241.12 366.71 241.12 366.71 229.4 370.4 229.4 374.8 236.11 374.8 229.4 377.64 229.4 377.64 241.12"/>
  <polygon class="cls-2" points="364.16 241.12 357.11 241.12 357.11 239.05 359.09 239.05 359.09 231.47 357.11 231.47 357.11 229.4 364.16 229.4 364.16 231.47 362.2 231.47 362.2 239.05 364.16 239.05 364.16 241.12"/>
  <polygon class="cls-2" points="354.87 240.44 354.44 240.6 353.92 240.76 352.74 241.06 352.07 241.19 351.4 241.3 350.74 241.34 350.07 241.36 349.32 241.34 348.97 241.32 348.62 241.26 348.28 241.21 347.96 241.13 347.64 241.05 347.34 240.95 347.04 240.86 346.75 240.73 346.48 240.58 346.23 240.44 345.96 240.29 345.71 240.13 345.48 239.93 345.27 239.74 345.06 239.53 344.86 239.31 344.67 239.09 344.51 238.85 344.36 238.61 344.2 238.34 344.09 238.07 343.96 237.81 343.85 237.53 343.76 237.22 343.69 236.93 343.64 236.61 343.58 236.27 343.55 235.94 343.54 235.59 343.54 235.24 343.54 234.91 343.55 234.59 343.58 234.25 343.64 233.95 343.69 233.65 343.76 233.34 343.85 233.06 343.96 232.77 344.09 232.5 344.2 232.25 344.36 231.98 344.51 231.74 344.67 231.51 344.86 231.27 345.07 231.04 345.28 230.83 345.5 230.63 345.75 230.44 345.98 230.27 346.25 230.11 346.51 229.96 346.8 229.82 347.07 229.7 347.38 229.57 347.7 229.49 348.01 229.4 348.35 229.32 348.69 229.28 349.04 229.22 349.41 229.19 350.17 229.17 350.75 229.17 351.33 229.22 351.9 229.28 352.43 229.38 352.71 229.43 353 229.51 353.27 229.59 353.56 229.69 354.17 229.91 354.83 230.21 354.83 232.95 354.47 232.95 354.19 232.74 353.82 232.48 353.38 232.22 352.98 231.96 352.72 231.84 352.47 231.74 352.19 231.63 351.87 231.53 351.55 231.45 351.24 231.4 350.91 231.36 350.54 231.36 350.35 231.36 350.16 231.36 349.96 231.38 349.77 231.42 349.57 231.45 349.4 231.49 349.23 231.53 349.06 231.59 348.72 231.72 348.41 231.9 348.12 232.09 347.85 232.31 347.6 232.57 347.4 232.85 347.3 233.01 347.2 233.17 347.13 233.32 347.04 233.52 346.97 233.69 346.92 233.89 346.87 234.09 346.83 234.3 346.8 234.52 346.77 234.73 346.75 235.21 346.75 235.43 346.77 235.67 346.8 235.9 346.81 236.11 346.85 236.32 346.91 236.53 346.95 236.74 347.02 236.93 347.1 237.1 347.17 237.28 347.25 237.43 347.34 237.6 347.44 237.76 347.56 237.9 347.68 238.03 347.8 238.19 347.94 238.31 348.08 238.41 348.24 238.54 348.41 238.62 348.56 238.71 348.74 238.8 348.94 238.89 349.13 238.95 349.32 239.01 349.54 239.06 349.75 239.1 349.96 239.14 350.2 239.17 350.44 239.18 350.7 239.21 350.94 239.21 351.13 239.21 351.33 239.21 351.54 239.18 351.72 239.17 351.72 236.87 349.32 236.87 349.32 234.66 354.87 234.66 354.87 240.44"/>
  <polygon class="cls-2" points="341.69 241.12 334.64 241.12 334.64 239.05 336.63 239.05 336.63 231.47 334.64 231.47 334.64 229.4 341.69 229.4 341.69 231.47 339.73 231.47 339.73 239.05 341.69 239.05 341.69 241.12"/>
  <polygon class="cls-2" points="332.11 241.12 329.12 241.12 324.02 233.06 324.02 241.12 321.17 241.12 321.17 229.4 324.88 229.4 329.26 236.11 329.26 229.4 332.11 229.4 332.11 241.12"/>
  <polygon class="cls-2" points="318.56 241.12 309.86 241.12 309.86 229.4 318.56 229.4 318.56 231.66 312.95 231.66 312.95 233.68 318.16 233.68 318.16 235.94 312.95 235.94 312.95 238.85 318.56 238.85 318.56 241.12"/>
  <path class="cls-2" d="M304.48,236.09l.29-.15.25-.13.24-.17.23-.15.2-.17.21-.21.18-.18.17-.19.15-.22.12-.24.09-.23.1-.26.07-.27.04-.28.03-.32.02-.31-.02-.22v-.23s-.06-.21-.06-.21l-.03-.2-.05-.19-.07-.18-.09-.18-.09-.16-.1-.16-.11-.14-.12-.13-.13-.13-.14-.13-.17-.12-.15-.11-.16-.1-.17-.09-.17-.08-.17-.08-.18-.07-.18-.05-.19-.06-.17-.05-.2-.04-.4-.05-.45-.04h-1s-5.2-.01-5.2-.01v11.72h3.1v-4.3h1.43l3.28,4.3h3.79l-4.02-5.03ZM303.64,233.21l-.03.22-.11.34-.19.28-.12.15-.17.12-.17.11-.19.09-.24.06-.22.06-.27.02-.3.03-.7.02h-.93v-3.15h1.65l.43.02h.22s.2.05.2.05l.33.1.22.09.17.12.13.13.12.16.07.16.07.17.03.22v.43Z"/>
  <polygon class="cls-2" points="294.3 241.12 285.61 241.12 285.61 229.4 294.3 229.4 294.3 231.66 288.68 231.66 288.68 233.68 293.89 233.68 293.89 235.94 288.68 235.94 288.68 238.85 294.3 238.85 294.3 241.12"/>
  <polygon class="cls-2" points="283.87 229.4 279.47 241.12 276.01 241.12 271.62 229.4 274.87 229.4 277.77 237.63 280.69 229.4 283.87 229.4"/>
  <polygon class="cls-2" points="271.08 241.12 262.4 241.12 262.4 229.4 265.5 229.4 265.5 238.85 271.08 238.85 271.08 241.12"/>
  <polygon class="cls-2" points="259.87 241.12 252.82 241.12 252.82 239.05 254.79 239.05 254.79 231.47 252.82 231.47 252.82 229.4 259.87 229.4 259.87 231.47 257.9 231.47 257.9 239.05 259.87 239.05 259.87 241.12"/>
  <polygon class="cls-5" points="250.75 241.12 242.04 241.12 242.04 229.4 250.75 229.4 250.75 231.66 245.14 231.66 245.14 233.68 250.36 233.68 250.36 235.94 245.14 235.94 245.14 238.85 250.75 238.85 250.75 241.12"/>
  <polygon class="cls-5" points="239.89 241.12 229.78 241.12 229.78 238.93 235.78 231.66 230.08 231.66 230.08 229.4 239.57 229.4 239.57 231.62 233.56 238.85 239.89 238.85 239.89 241.12"/>
  <polygon class="cls-5" points="221.86 241.12 218.86 241.12 213.74 233.06 213.74 241.12 210.92 241.12 210.92 229.4 214.61 229.4 219 236.11 219 229.4 221.86 229.4 221.86 241.12"/>
  <polygon class="cls-5" points="208.32 241.12 199.6 241.12 199.6 229.4 208.32 229.4 208.32 231.66 202.68 231.66 202.68 233.68 207.91 233.68 207.91 235.94 202.68 235.94 202.68 238.85 208.32 238.85 208.32 241.12"/>
  <polygon class="cls-5" points="197.74 231.67 193.97 231.67 193.97 241.12 190.87 241.12 190.87 231.67 187.11 231.67 187.11 229.4 197.74 229.4 197.74 231.67"/>
  <polygon class="cls-5" points="185.23 241.12 182.24 241.12 177.13 233.06 177.13 241.12 174.29 241.12 174.29 229.4 178.01 229.4 182.4 236.11 182.4 229.4 185.23 229.4 185.23 241.12"/>
  <polygon class="cls-5" points="171.69 241.12 162.99 241.12 162.99 229.4 171.69 229.4 171.69 231.66 166.07 231.66 166.07 233.68 171.28 233.68 171.28 235.94 166.07 235.94 166.07 238.85 171.69 238.85 171.69 241.12"/>
  <path class="cls-5" d="M160.6,234.85l-.04-.41-.05-.39-.03-.2-.05-.16-.1-.37-.04-.19-.08-.15-.14-.35-.09-.18-.09-.14-.18-.31-.1-.15-.11-.13-.21-.28-.26-.26-.24-.25-.26-.23-.29-.19-.16-.1-.14-.1-.19-.1-.2-.11-.21-.09-.22-.08-.21-.08-.26-.08-.52-.14-.55-.12-.62-.06-.65-.04h-.7s-4.38-.01-4.38-.01v11.72h4.93s.67-.07.67-.07l.59-.04.56-.08.23-.07.27-.06.26-.09.24-.08.24-.09.22-.11.46-.22.28-.21.28-.19.26-.23.25-.24.24-.25.22-.27.21-.31.2-.31.19-.32.14-.35.07-.17.07-.17.06-.17.05-.21.03-.17.06-.19.04-.18v-.2s.03-.2.03-.2l.02-.2v-.4s0-.42,0-.42ZM157.39,235.53l-.02.29-.03.25-.04.25-.05.23-.08.23-.08.21-.09.22-.1.19-.13.17-.12.18-.17.17-.15.16-.18.13-.19.13-.21.11-.24.14-.25.09-.27.08-.24.06-.3.04-.38.05-.94.02h-.78v-7.35h1.66s.34.04.34.04l.27.05.26.05.24.07.23.08.25.11.23.11.2.14.19.14.2.16.16.16.13.18.16.19.09.19.12.22.08.22.08.24.04.23.06.27.03.27.02.25v.29s0,.29,0,.29Z"/>
  <polygon class="cls-5" points="146.34 236.87 146.33 237.14 146.31 237.4 146.29 237.64 146.25 237.9 146.2 238.13 146.15 238.36 146.08 238.59 145.99 238.8 145.9 238.99 145.81 239.19 145.69 239.39 145.57 239.56 145.44 239.74 145.29 239.9 145.14 240.06 144.97 240.2 144.8 240.35 144.62 240.49 144.43 240.6 144.21 240.71 144 240.82 143.78 240.9 143.55 241 143.29 241.06 143.05 241.13 142.78 241.2 142.49 241.25 142.21 241.3 141.61 241.34 140.97 241.36 140.34 241.34 139.74 241.3 139.45 241.25 139.17 241.2 138.65 241.06 138.4 241 138.17 240.9 137.95 240.82 137.74 240.71 137.53 240.6 137.33 240.49 137.15 240.35 136.98 240.2 136.81 240.06 136.66 239.9 136.51 239.74 136.39 239.56 136.26 239.39 136.16 239.19 136.06 238.99 135.95 238.8 135.87 238.59 135.8 238.36 135.75 238.14 135.7 237.9 135.65 237.66 135.64 237.4 135.63 237.16 135.63 236.89 135.63 229.4 138.74 229.4 138.74 236.72 138.74 237.02 138.77 237.27 138.82 237.55 138.87 237.77 138.94 237.99 139.05 238.2 139.15 238.37 139.27 238.53 139.43 238.68 139.57 238.78 139.76 238.89 139.95 238.98 140.17 239.05 140.42 239.09 140.69 239.12 140.97 239.14 141.25 239.12 141.53 239.1 141.76 239.05 141.98 238.98 142.18 238.91 142.37 238.8 142.53 238.69 142.67 238.55 142.79 238.4 142.91 238.21 142.99 238.02 143.08 237.82 143.13 237.56 143.17 237.29 143.21 237.02 143.21 236.72 143.21 229.4 146.34 229.4 146.34 236.87"/>
  <polygon class="cls-5" points="133.93 231.67 130.17 231.67 130.17 241.12 127.05 241.12 127.05 231.67 123.3 231.67 123.3 229.4 133.93 229.4 133.93 231.67"/>
  <polygon class="cls-5" points="122.38 237.43 122.36 237.64 122.34 237.86 122.33 238.06 122.28 238.27 122.21 238.45 122.17 238.64 122.07 238.83 122.01 239.01 121.89 239.17 121.8 239.34 121.67 239.52 121.53 239.66 121.39 239.84 121.23 239.97 121.05 240.1 120.87 240.25 120.67 240.37 120.47 240.5 120.28 240.63 120.04 240.73 119.81 240.82 119.58 240.9 119.33 241 119.08 241.06 118.84 241.12 118.55 241.19 118 241.26 117.4 241.32 116.76 241.34 116.04 241.32 115.37 241.28 114.74 241.19 114.45 241.13 114.16 241.08 113.61 240.94 113.07 240.78 112.56 240.63 112.09 240.43 112.09 237.61 112.43 237.61 112.66 237.79 112.93 237.97 113.16 238.13 113.43 238.27 113.72 238.41 114 238.53 114.28 238.67 114.57 238.76 114.87 238.85 115.17 238.95 115.46 239.01 115.74 239.06 116.04 239.12 116.3 239.14 116.59 239.16 116.87 239.17 117.19 239.16 117.61 239.12 117.82 239.1 118.02 239.06 118.36 238.97 118.7 238.8 118.94 238.61 119.12 238.34 119.18 237.99 119.15 237.79 119.1 237.61 119 237.45 118.84 237.31 118.67 237.19 118.43 237.07 118.16 236.95 117.86 236.89 117.18 236.73 116.42 236.58 115.7 236.43 115.01 236.23 114.64 236.11 114.3 235.98 113.98 235.82 113.71 235.67 113.43 235.51 113.19 235.33 113.01 235.13 112.81 234.93 112.68 234.74 112.53 234.5 112.4 234.27 112.32 234.01 112.25 233.75 112.2 233.48 112.15 233.19 112.15 232.89 112.15 232.69 112.18 232.5 112.21 232.3 112.25 232.11 112.3 231.93 112.37 231.75 112.45 231.58 112.53 231.41 112.64 231.24 112.74 231.09 112.87 230.91 113.01 230.79 113.16 230.62 113.31 230.48 113.47 230.35 113.66 230.22 113.87 230.09 114.05 229.99 114.25 229.86 114.46 229.77 114.69 229.67 114.9 229.59 115.16 229.5 115.38 229.43 115.87 229.32 116.14 229.28 116.41 229.24 116.97 229.2 117.55 229.19 118.13 229.19 118.72 229.24 119.31 229.3 119.88 229.4 120.45 229.51 120.97 229.67 121.45 229.8 121.89 229.96 121.89 232.67 121.57 232.67 121.39 232.53 121.18 232.39 120.97 232.26 120.76 232.14 120.53 232.03 120.29 231.93 119.78 231.72 119.51 231.63 119.24 231.56 118.98 231.48 118.72 231.44 118.45 231.41 118.18 231.36 117.89 231.34 117.63 231.34 117.24 231.34 117.05 231.36 116.85 231.38 116.66 231.42 116.47 231.47 116.29 231.52 116.11 231.58 115.82 231.74 115.57 231.95 115.4 232.2 115.34 232.5 115.37 232.71 115.44 232.91 115.56 233.06 115.71 233.21 115.92 233.33 116.23 233.42 116.42 233.49 116.62 233.54 117.08 233.65 117.75 233.8 118.36 233.92 119 234.05 119.68 234.27 120 234.38 120.33 234.5 120.61 234.64 120.87 234.78 121.12 234.93 121.34 235.1 121.55 235.28 121.72 235.48 121.86 235.67 122.01 235.88 122.11 236.09 122.2 236.34 122.29 236.58 122.33 236.85 122.36 237.14 122.38 237.43"/>
  <polygon class="cls-2" points="104.47 241.12 95.75 241.12 95.75 229.4 104.47 229.4 104.47 231.66 98.86 231.66 98.86 233.68 104.07 233.68 104.07 235.94 98.86 235.94 98.86 238.85 104.47 238.85 104.47 241.12"/>
  <polygon class="cls-2" points="93.63 237.43 93.63 237.64 93.62 237.86 93.58 238.06 93.54 238.27 93.5 238.45 93.42 238.64 93.34 238.83 93.26 239.01 93.16 239.17 93.05 239.34 92.92 239.52 92.78 239.66 92.64 239.84 92.48 239.97 92.3 240.1 92.13 240.25 91.93 240.37 91.74 240.5 91.52 240.63 91.31 240.73 91.08 240.82 90.85 240.9 90.6 241 90.36 241.06 90.09 241.12 89.82 241.19 89.26 241.26 88.66 241.32 88.04 241.34 87.31 241.32 86.64 241.28 86 241.19 85.71 241.13 85.43 241.08 84.88 240.94 84.35 240.78 83.84 240.63 83.35 240.43 83.35 237.61 83.68 237.61 84.18 237.97 84.44 238.13 84.72 238.27 84.97 238.41 85.25 238.53 85.54 238.67 85.84 238.76 86.14 238.85 86.43 238.95 86.73 239.01 87 239.06 87.29 239.12 87.58 239.14 87.86 239.16 88.13 239.17 88.46 239.16 88.87 239.12 89.1 239.1 89.29 239.06 89.63 238.97 89.79 238.9 89.95 238.8 90.21 238.61 90.4 238.34 90.45 237.99 90.43 237.79 90.36 237.61 90.25 237.45 90.11 237.31 89.92 237.19 89.7 237.07 89.43 236.95 89.13 236.89 88.44 236.73 87.71 236.58 86.96 236.43 86.26 236.23 85.91 236.11 85.56 235.98 85.25 235.82 84.97 235.67 84.72 235.51 84.48 235.33 84.27 235.13 84.09 234.93 83.93 234.74 83.79 234.5 83.68 234.27 83.59 234.01 83.52 233.75 83.47 233.48 83.43 233.19 83.41 232.89 83.43 232.69 83.45 232.5 83.47 232.3 83.52 232.11 83.57 231.93 83.63 231.75 83.71 231.58 83.81 231.41 83.89 231.24 84.01 231.09 84.13 230.91 84.27 230.79 84.41 230.62 84.56 230.48 84.74 230.35 84.92 230.22 85.11 230.09 85.32 229.99 85.52 229.86 85.73 229.77 85.95 229.67 86.17 229.59 86.4 229.5 86.66 229.43 87.15 229.32 87.4 229.28 87.68 229.24 88.23 229.2 88.8 229.19 89.4 229.19 89.98 229.24 90.56 229.3 91.16 229.4 91.72 229.51 92.24 229.67 92.71 229.8 93.16 229.96 93.16 232.67 92.84 232.67 92.64 232.53 92.45 232.39 92.24 232.26 92.02 232.14 91.79 232.03 91.57 231.93 91.05 231.72 90.77 231.63 90.52 231.56 90.25 231.48 89.98 231.44 89.7 231.41 89.43 231.36 89.17 231.34 88.87 231.34 88.5 231.34 88.33 231.36 88.13 231.38 87.93 231.42 87.74 231.47 87.56 231.52 87.37 231.58 87.09 231.74 86.83 231.95 86.68 232.2 86.62 232.5 86.64 232.71 86.71 232.91 86.82 233.06 86.97 233.21 87.21 233.33 87.51 233.42 87.68 233.49 87.88 233.54 88.36 233.65 89 233.8 89.63 233.92 90.25 234.05 90.95 234.27 91.28 234.38 91.59 234.5 91.89 234.64 92.14 234.78 92.37 234.93 92.6 235.1 92.8 235.28 92.98 235.48 93.14 235.67 93.26 235.88 93.39 236.09 93.48 236.34 93.54 236.58 93.6 236.85 93.63 237.14 93.63 237.43"/>
  <polygon class="cls-2" points="81.22 240.44 80.78 240.6 80.28 240.76 79.07 241.06 78.4 241.19 77.75 241.3 77.08 241.34 76.41 241.36 75.68 241.34 75.3 241.32 74.97 241.26 74.62 241.21 74.29 241.13 73.97 241.05 73.67 240.95 73.39 240.86 73.09 240.73 72.83 240.58 72.56 240.44 72.31 240.29 72.06 240.13 71.83 239.93 71.6 239.74 71.39 239.53 71.2 239.31 71.02 239.09 70.85 238.85 70.68 238.61 70.54 238.34 70.42 238.07 70.3 237.81 70.21 237.53 70.11 237.22 70.04 236.93 69.97 236.61 69.94 236.27 69.9 235.94 69.88 235.59 69.87 235.24 69.88 234.91 69.9 234.59 69.94 234.25 69.97 233.95 70.04 233.65 70.11 233.34 70.21 233.06 70.3 232.77 70.42 232.5 70.55 232.25 70.7 231.98 70.85 231.74 71.03 231.51 71.21 231.27 71.4 231.04 71.62 230.83 71.84 230.63 72.07 230.44 72.33 230.27 72.6 230.11 72.86 229.96 73.13 229.82 73.42 229.7 73.72 229.57 74.02 229.49 74.36 229.4 74.68 229.32 75.04 229.28 75.39 229.22 75.75 229.19 76.51 229.17 77.09 229.17 77.67 229.22 78.23 229.28 78.77 229.38 79.06 229.43 79.32 229.51 79.62 229.59 79.91 229.69 80.52 229.91 81.16 230.21 81.16 232.95 80.83 232.95 80.54 232.74 80.15 232.48 79.73 232.22 79.32 231.96 79.07 231.84 78.81 231.74 78.53 231.63 78.23 231.53 77.91 231.45 77.57 231.4 77.24 231.36 76.89 231.36 76.68 231.36 76.49 231.36 76.29 231.38 76.09 231.42 75.92 231.45 75.75 231.49 75.57 231.53 75.39 231.59 75.07 231.72 74.75 231.9 74.47 232.09 74.19 232.31 73.95 232.57 73.83 232.71 73.74 232.85 73.65 233.01 73.55 233.17 73.47 233.32 73.39 233.52 73.32 233.69 73.27 233.89 73.22 234.09 73.16 234.3 73.13 234.52 73.1 234.73 73.09 235.21 73.09 235.43 73.1 235.67 73.12 235.9 73.16 236.11 73.2 236.32 73.25 236.53 73.3 236.74 73.36 236.93 73.42 237.1 73.52 237.28 73.6 237.43 73.69 237.6 73.81 237.76 73.91 237.9 74.02 238.03 74.15 238.19 74.29 238.31 74.44 238.41 74.57 238.54 74.74 238.62 74.92 238.71 75.09 238.8 75.27 238.89 75.46 238.95 75.65 239.01 75.87 239.06 76.08 239.1 76.31 239.14 76.54 239.17 76.78 239.18 77.02 239.21 77.29 239.21 77.47 239.21 77.67 239.21 77.88 239.18 78.07 239.17 78.07 236.87 75.65 236.87 75.65 234.66 81.22 234.66 81.22 240.44"/>
  <polygon class="cls-2" points="67.97 241.12 59.25 241.12 59.25 229.4 67.97 229.4 67.97 231.66 62.36 231.66 62.36 233.68 67.56 233.68 67.56 235.94 62.36 235.94 62.36 238.85 67.97 238.85 67.97 241.12"/>
  <polygon class="cls-2" points="56.65 241.12 47.94 241.12 47.94 229.4 56.65 229.4 56.65 231.66 51.05 231.66 51.05 233.68 56.25 233.68 56.25 235.94 51.05 235.94 51.05 238.85 56.65 238.85 56.65 241.12"/>
  <polygon class="cls-2" points="44.88 241.12 41.8 241.12 41.8 233.28 39.56 238.36 37.42 238.36 35.19 233.28 35.19 241.12 32.24 241.12 32.24 229.4 35.86 229.4 38.57 235.28 41.26 229.4 44.88 229.4 44.88 241.12"/>
  <polygon class="cls-2" points="29.33 237.69 29.33 237.86 29.31 238.06 29.29 238.25 29.25 238.43 29.22 238.6 29.17 238.78 29.12 238.96 29.04 239.12 28.97 239.3 28.9 239.45 28.71 239.74 28.47 240.02 28.36 240.14 28.21 240.27 28.07 240.37 27.91 240.5 27.73 240.6 27.55 240.69 27.38 240.8 27.18 240.89 26.99 240.95 26.79 241.03 26.58 241.11 26.35 241.16 26.1 241.19 25.85 241.24 25.31 241.28 25.01 241.3 24.72 241.3 23.93 241.28 23.16 241.24 22.47 241.18 21.87 241.06 21.87 238.71 22.15 238.71 22.55 238.84 22.96 238.96 23.18 239.01 23.45 239.06 23.72 239.08 24.02 239.08 24.25 239.08 24.44 239.08 24.79 239.03 25.1 238.96 25.34 238.86 25.55 238.75 25.73 238.6 25.89 238.45 26 238.25 26.09 238.06 26.14 237.85 26.19 237.63 26.21 237.4 26.22 236.89 26.22 236.23 26.22 231.56 23.48 231.56 23.48 229.4 29.33 229.4 29.33 237.69"/>
  <polygon class="cls-2" points="20.53 241.12 13.48 241.12 13.48 239.05 15.46 239.05 15.46 231.47 13.48 231.47 13.48 229.4 20.53 229.4 20.53 231.47 18.55 231.47 18.55 239.05 20.53 239.05 20.53 241.12"/>
  <polygon class="cls-2" points="10.94 241.12 7.96 241.12 2.84 233.06 2.84 241.12 0 241.12 0 229.4 3.72 229.4 8.11 236.11 8.11 229.4 10.94 229.4 10.94 241.12"/>
  <polygon class="cls-4" points="269.19 126.75 269.1 126.94 269.05 127.15 265.01 129.07 261.04 131.03 253.43 133.8 245.69 136.43 242.96 137.1 242.3 137.32 241.96 137.43 241.64 137.55 241.33 137.69 241.01 137.84 240.71 138.02 240.43 138.22 240.95 138.59 241.46 138.97 241.94 139.35 242.4 139.78 243.3 140.63 244.16 141.53 247.48 145.27 249.65 144.49 252 143.78 254.47 143.14 257.06 142.58 262.56 141.71 268.36 141.13 270.27 141.04 272.08 141.04 273.85 141.11 275.53 141.26 277.14 141.48 278.7 141.76 280.21 142.1 281.65 142.47 284.46 143.33 287.13 144.3 292.29 146.24 292.32 145.59 292.37 144.97 292.46 144.38 292.57 143.83 292.73 143.3 292.89 142.81 293.08 142.32 293.29 141.85 293.52 141.41 293.77 140.98 294.29 140.14 295.34 138.5 293.33 138.1 291.4 137.64 289.53 137.1 287.73 136.53 284.32 135.21 281.07 133.71 277.98 132.09 275 130.36 269.19 126.75"/>
  <polygon class="cls-3" points="253.16 131.86 254.2 128.34 255.23 124.39 255.64 122.62 256.06 120.42 256.23 119.31 256.31 118.23 256.33 117.72 256.31 117.24 256.28 116.78 256.23 116.57 256.18 116.37 256.14 116.18 256.06 115.95 255.96 115.73 255.83 115.49 255.69 115.24 255.53 114.97 255.18 114.42 253.56 112.23 251.5 109.53 249.31 106.96 247.04 104.44 244.69 102.03 242.24 99.71 239.66 97.49 237.01 95.37 234.22 93.37 231.36 91.48 228.39 89.7 225.3 88.03 222.1 86.5 218.8 85.09 215.37 83.82 211.84 82.66 208.2 81.67 204.63 80.87 200.68 80.2 196.45 79.68 192.06 79.35 187.58 79.21 183.14 79.3 178.81 79.65 176.74 79.94 174.74 80.29 172.95 80.64 171.9 80.87 170.85 81.17 170.35 81.36 169.87 81.53 169.63 81.63 169.42 81.74 169.21 81.84 169.01 81.96 168.82 82.08 168.66 82.2 168.51 82.32 168.35 82.45 168.22 82.59 168.11 82.75 167.95 83.05 167.86 83.38 167.84 83.58 167.83 83.77 167.83 83.97 167.83 84.18 167.84 84.42 167.88 84.65 167.97 85.12 168.08 85.62 168.38 86.67 169.76 90.65 170.85 94.68 171.28 96.67 171.45 97.62 171.55 98.54 171.82 102.13 171.89 105.69 171.77 109.19 171.55 112.49 171.35 114.62 171.28 115.64 171.27 116.14 171.28 116.65 173.89 116.57 176.47 116.35 181.57 115.72 186.56 115.08 189.03 114.9 191.47 114.85 193.9 114.95 196.25 115.17 198.54 115.47 200.77 115.87 202.9 116.37 205.01 116.96 207.04 117.61 209.03 118.35 210.93 119.15 212.82 120.01 216.41 121.86 219.84 123.9 223.14 126.05 229.46 130.6 235.45 135.46 241.26 140.72 242.73 141.99 244.26 143.19 245.82 144.28 246.64 144.79 247.47 145.27 248.4 143.79 249.23 142.22 249.99 140.63 250.7 138.96 251.98 135.49 253.16 131.86"/>
</svg>